<svg width="26" height="37" viewBox="0 0 26 37" fill="none" xmlns="http://www.w3.org/2000/svg">
<path d="M10.6531 2.66408V36.75H6.9595V0.442144L10.6531 2.66408ZM11.1531 36.75L11.1532 29.8113L16.5242 32.1192L16.5242 36.75L11.1531 36.75ZM17.0242 36.75L17.0242 12.9412L25.7501 15.3272V36.75H17.0242ZM0.745691 3.97251L0.588749 4.03545V4.20455V6.72727V7.09689L0.931806 6.95931L5.12535 5.27749L5.2823 5.21455V5.04545V2.52273V2.15311L4.93924 2.29069L0.745691 3.97251ZM5.2823 6.72727V6.35765L4.93924 6.49524L0.745691 8.17706L0.588749 8.24V8.40909V10.9318V11.3014L0.931806 11.1639L5.12535 9.48203L5.2823 9.41909V9.25V6.72727ZM0.745691 12.3816L0.588749 12.4445V12.6136V15.1364V15.506L0.931806 15.3684L5.12535 13.6866L5.2823 13.6236V13.4545V10.9318V10.5622L4.93924 10.6998L0.745691 12.3816ZM5.2823 15.1364V14.7667L4.93924 14.9043L0.745691 16.5861L0.588749 16.6491V16.8182V19.3409V19.7105L0.931806 19.5729L5.12535 17.8911L5.2823 17.8282V17.6591V15.1364ZM18.5203 27.5097L18.2015 27.4183V27.75V30.2727V30.4612L18.3826 30.5131L24.2536 32.1949L24.5724 32.2862V31.9545V29.4318V29.2434L24.3913 29.1915L18.5203 27.5097ZM24.5724 25.2273V25.0388L24.3913 24.9869L18.5203 23.3051L18.2015 23.2138V23.5455V26.0682V26.2566L18.3826 26.3085L24.2536 27.9903L24.5724 28.0817V27.75V25.2273ZM18.5203 19.1006L18.2015 19.0092V19.3409V21.8636V22.0521L18.3826 22.104L24.2536 23.7858L24.5724 23.8771V23.5455V21.0227V20.8343L24.3913 20.7824L18.5203 19.1006ZM24.5724 16.8182V16.6297L24.3913 16.5778L18.5203 14.896L18.2015 14.8047V15.1364V17.6591V17.8475L18.3826 17.8994L24.2536 19.5812L24.5724 19.6726V19.3409V16.8182ZM11.992 28.4218V15.2777L15.6855 13.0558V29.9031L11.992 28.4218ZM0.25 2.68741L5.62097 0.379526V36.75H0.25V2.68741Z" stroke="white" stroke-width="0.5"/>
</svg>
