<svg width="112" height="110" viewBox="0 0 112 110" fill="none" xmlns="http://www.w3.org/2000/svg">
<path d="M110.889 58.4101C110.955 57.4088 111.009 56.0383 111.009 54.9695C111.009 53.7679 110.961 52.5202 110.856 51.0442C109.856 37.1769 103.641 24.2029 93.4618 14.7326C83.2827 5.26226 69.8947 -0.00165117 55.9918 3.88515e-07C42.0884 0.00165194 28.7017 5.26874 18.5249 14.7415C8.3481 24.2143 2.13644 37.1898 1.13976 51.0573C0.143086 64.9248 4.43534 78.6554 13.1529 89.486C21.8705 100.317 34.3665 107.444 48.1266 109.434C61.8867 111.424 75.8901 108.128 87.3188 100.211C98.7476 92.2938 106.754 80.3417 109.726 66.7601C109.726 66.7601 109.901 66.0878 110.047 65.2914C110.407 63.2493 110.794 60.1738 110.889 58.4101ZM55.954 103.144C46.572 103.146 37.3933 100.41 29.5448 95.2698C21.6963 90.1295 15.5196 82.809 11.7728 74.2081C8.02613 65.6065 6.8726 56.0983 8.45378 46.8505C10.035 37.6027 14.2821 29.0179 20.6738 22.15C27.0654 15.2821 35.3233 10.4299 44.4338 8.18933C53.5443 5.94872 63.1108 6.41711 71.9588 9.53701C80.8067 12.6569 88.5512 18.2926 94.2415 25.752C99.9318 33.2115 103.32 42.1702 103.99 51.5282C104.071 52.6664 104.127 53.8106 104.127 54.9695C104.127 56.1284 104.071 57.2719 103.99 58.4101H61.8813C61.1239 59.7218 59.9548 60.7467 58.5555 61.3262C57.1561 61.9058 55.6046 62.0073 54.1417 61.6152C52.6788 61.2231 51.386 60.3593 50.464 59.1577C49.5421 57.956 49.0423 56.4837 49.0423 54.9692C49.0423 53.4546 49.5421 51.9823 50.464 50.7807C51.386 49.579 52.6788 48.7152 54.1417 48.3231C55.6046 47.931 57.1561 48.0326 58.5555 48.6121C59.9548 49.1916 61.1239 50.2166 61.8813 51.5282H97.092C96.2348 41.2061 91.5325 31.5823 83.9156 24.5634C76.2993 17.5446 66.3238 13.6426 55.9662 13.6305C45.6086 13.6184 35.6243 17.4971 27.9911 24.4983C20.3581 31.4994 15.633 41.1122 14.7521 51.4323C13.8712 61.7523 16.8987 72.0265 23.2348 80.2202C29.5709 88.4139 38.7534 93.9287 48.9632 95.6723C59.173 97.4154 69.6651 95.2604 78.3615 89.6342C87.0578 84.008 93.3229 75.3203 95.9171 65.2927H103.003C100.649 76.0199 94.7014 85.6201 86.1446 92.5041C77.5877 99.388 66.936 103.142 55.954 103.144ZM55.954 34.3264C52.329 34.3219 48.7668 35.272 45.6255 37.0811C42.4843 38.8902 39.8748 41.4946 38.0594 44.6322C36.244 47.7698 35.2868 51.3301 35.2841 54.9551C35.2813 58.58 36.2331 62.1418 38.0437 65.2822C39.8542 68.4223 42.4597 71.0312 45.5982 72.8449C48.7367 74.6587 52.2975 75.614 55.9225 75.6153C59.5474 75.6167 63.1087 74.6627 66.2483 72.851C69.388 71.0385 71.9949 68.4323 73.8073 65.2927H81.4369C79.041 71.2141 74.6605 76.118 69.0462 79.1641C63.4313 82.2102 56.9319 83.2089 50.6619 81.9886C44.3918 80.7683 38.7413 77.4051 34.6788 72.4758C30.6163 67.5458 28.3946 61.3572 28.3946 54.9695C28.3946 48.5818 30.6163 42.3929 34.6788 37.4635C38.7413 32.5341 44.3918 29.171 50.6619 27.9507C56.9319 26.7304 63.4313 27.7288 69.0462 30.7749C74.6605 33.8208 79.041 38.7248 81.4369 44.6463H73.806C71.9989 41.5096 69.3974 38.9043 66.2629 37.0927C63.1288 35.2811 59.5727 34.3269 55.9526 34.3264H55.954Z" fill="#494D4E"/>
</svg>
 