<svg width="83" height="110" viewBox="0 0 83 110" fill="none" xmlns="http://www.w3.org/2000/svg">
<path d="M0.0126218 0V34.2837H5.91973V5.90712H76.9113V68.5976C76.9113 73.2592 75.9932 77.8751 74.2092 82.1818C72.4253 86.4885 69.8106 90.4017 66.5144 93.6979C63.2182 96.9941 59.305 99.6087 54.9983 101.393C50.6915 103.176 46.0757 104.095 41.4141 104.095C36.7526 104.095 32.1365 103.176 27.8298 101.393C23.5231 99.6087 19.6099 96.9941 16.3137 93.6979C13.0175 90.4017 10.4028 86.4885 8.61889 82.1818C6.83499 77.8751 5.91682 73.2592 5.91682 68.5976V63.6858H28.1778V68.5976C28.1778 72.1065 29.5718 75.4717 32.053 77.9528C34.5341 80.434 37.8993 81.828 41.4082 81.828C44.9171 81.828 48.2824 80.434 50.7635 77.9528C53.2447 75.4717 54.6386 72.1065 54.6386 68.5976V28.173H28.1808V34.2837H48.5367V68.5976C48.5367 70.4869 47.7862 72.2987 46.4503 73.6347C45.1143 74.9706 43.3024 75.7212 41.4131 75.7212C39.5238 75.7212 37.7119 74.9706 36.3759 73.6347C35.04 72.2987 34.2895 70.4869 34.2895 68.5976V57.5703H5.91583H0.00872803V68.5947C0.00872803 79.576 4.37102 90.1074 12.1359 97.8721C19.9009 105.638 30.4323 110 41.4136 110C52.3948 110 62.9263 105.638 70.6913 97.8721C78.4561 90.1074 82.8184 79.576 82.8184 68.5947V0H0.0126218Z" fill="#22304B"/>
<path d="M41.4219 86.9148C36.5635 86.9109 31.905 84.9797 28.469 81.5451C25.0328 78.1104 23.0997 73.4528 23.0937 68.5945H16.9938C16.9938 75.0721 19.567 81.2845 24.1475 85.865C28.7279 90.4453 34.9403 93.0187 41.418 93.0187C47.8957 93.0187 54.1081 90.4453 58.6885 85.865C63.269 81.2845 65.8422 75.0721 65.8422 68.5945V16.9741H16.9938V34.2776H23.0937V23.077H59.7335V68.5906C59.7303 73.4473 57.8005 78.1044 54.3675 81.5399C50.9344 84.9752 46.2786 86.9084 41.4219 86.9148Z" fill="#494D4E"/>
</svg>
