<svg width="43" height="36" viewBox="0 0 43 36" fill="none" xmlns="http://www.w3.org/2000/svg">
<path d="M12 36C13.2208 36 14.734 35.6328 16 35C17.3113 34.322 18.1409 33.2203 19 32C19.8591 30.7345 20 29.7175 20 28C20 26.8701 19.633 25.6723 19 24C18.0957 24.0904 17.4522 24 17 24C14.694 24 13.4921 22.4463 12 21C10.5079 19.5537 9 17.9435 9 16C9 13.6045 10.0105 12.1695 12 10C14.0347 7.78531 17.8402 6.08475 22 5L20 0C12.1325 2.0791 6.80336 4.9322 4 9C1.24185 13.0678 0 17.6158 0 22C0 25.1638 0.733964 27.8757 2 30C3.26604 32.1243 5.19138 34.0056 7 35C8.85384 35.9944 10.2366 36 12 36ZM33 36C34.2208 36 35.734 35.6328 37 35C38.3113 34.322 39.1409 33.2203 40 32C40.8591 30.7345 42 29.7175 42 28C42 26.8701 41.633 25.6723 41 24C40.0957 24.0904 39.4069 24 39 24C36.694 24 34.4921 23.4011 33 22C31.5531 20.5537 31 17.9887 31 16C31 13.6045 32.0105 12.1695 34 10C36.0347 7.78531 38.8402 6.08475 43 5L42 0C34.1325 2.0791 28.8034 4.9322 26 9C23.2418 13.0678 21 17.6158 21 22C21 25.1638 21.7792 27.8757 23 30C24.266 32.1243 26.1914 34.0056 28 35C29.8538 35.9944 31.2366 36 33 36Z" fill="#0B889A"/>
</svg>
