<svg width="40" height="40" viewBox="0 0 40 40" fill="none" xmlns="http://www.w3.org/2000/svg">
<path d="M17.653 4.66408V38.75H13.9595V2.44214L17.653 4.66408ZM18.153 38.75L18.1532 31.8113L23.5242 34.1192L23.5242 38.75L18.153 38.75ZM24.0242 38.75L24.0242 14.9412L32.75 17.3272V38.75H24.0242ZM7.74569 5.97251L7.58875 6.03545V6.20454V8.72727V9.09689L7.9318 8.95931L12.1253 7.27749L12.2823 7.21455V7.04545V4.52273V4.15311L11.9392 4.29069L7.74569 5.97251ZM12.2823 8.72727V8.35765L11.9392 8.49524L7.74569 10.1771L7.58875 10.24V10.4091V12.9318V13.3014L7.9318 13.1638L12.1253 11.482L12.2823 11.4191V11.25V8.72727ZM7.74569 14.3816L7.58875 14.4445V14.6136V17.1364V17.506L7.9318 17.3684L12.1253 15.6866L12.2823 15.6236V15.4545V12.9318V12.5622L11.9392 12.6998L7.74569 14.3816ZM12.2823 17.1364V16.7667L11.9392 16.9043L7.74569 18.5861L7.58875 18.6491V18.8182V21.3409V21.7105L7.9318 21.5729L12.1253 19.8911L12.2823 19.8282V19.6591V17.1364ZM25.5203 29.5097L25.2014 29.4183V29.75V32.2727V32.4612L25.3826 32.5131L31.2536 34.1949L31.5724 34.2862V33.9545V31.4318V31.2434L31.3912 31.1915L25.5203 29.5097ZM31.5724 27.2273V27.0388L31.3912 26.9869L25.5203 25.3051L25.2014 25.2138V25.5455V28.0682V28.2566L25.3826 28.3085L31.2536 29.9903L31.5724 30.0817V29.75V27.2273ZM25.5203 21.1006L25.2014 21.0092V21.3409V23.8636V24.0521L25.3826 24.104L31.2536 25.7858L31.5724 25.8771V25.5455V23.0227V22.8343L31.3912 22.7824L25.5203 21.1006ZM31.5724 18.8182V18.6297L31.3912 18.5778L25.5203 16.896L25.2014 16.8047V17.1364V19.6591V19.8475L25.3826 19.8994L31.2536 21.5812L31.5724 21.6726V21.3409V18.8182ZM18.992 30.4218V17.2777L22.6855 15.0558V31.9031L18.992 30.4218ZM7.25 4.68741L12.621 2.37953V38.75H7.25V4.68741Z" stroke="#085C8B" stroke-width="0.5"/>
</svg>
