<svg width="35" height="24" viewBox="0 0 35 24" fill="none" xmlns="http://www.w3.org/2000/svg">
<mask id="path-1-inside-1" fill="white">
<path fill-rule="evenodd" clip-rule="evenodd" d="M9.88797 0.104604C9.24063 0.261397 8.74841 0.569513 8.11269 1.2161C7.25055 2.09293 6.78137 2.69596 6.06833 3.84363C5.85258 4.19086 5.65261 4.51081 5.62397 4.55457C5.55683 4.65721 5.18609 4.72983 5.07999 4.66117C5.02086 4.62295 5.01594 4.53303 5.06208 4.33651C5.1286 4.05301 5.09011 3.57579 4.98722 3.40929C4.88912 3.25051 3.85129 3.23698 3.37048 3.38823C2.70017 3.59911 2.08093 4.31285 2.2636 4.66398C2.49522 5.10926 2.89727 5.28349 3.79441 5.32725C4.91763 5.38202 4.93178 5.35365 2.90985 7.10394C1.98714 7.90275 1.13963 8.6731 1.02655 8.81595C0.710987 9.21446 0.348657 10.0373 0.240779 10.6002C0.134883 11.1527 -0.000409254 13.7661 9.30459e-07 15.2518C0.000547843 17.5765 0.356109 19.6932 0.886477 20.5293L1.09403 20.8565V22.1909C1.09403 23.5745 1.14271 23.8541 1.40092 23.9532C1.53881 24.0061 8.27861 24.0167 8.41534 23.9642C8.67204 23.8657 8.7508 23.5619 8.7508 22.6703V21.809H17.5014H26.252V22.6969C26.252 23.5697 26.2552 23.5883 26.44 23.7916L26.628 23.9985L30.0521 24C31.9353 24.0008 33.5285 23.9814 33.5924 23.9568C33.8608 23.8538 33.9088 23.5859 33.9088 22.1909V20.8565L34.1163 20.5293C34.6588 19.674 35.0063 17.5317 34.9999 15.0809C34.9955 13.3794 34.8236 10.6811 34.6924 10.253C34.5517 9.79397 34.3036 9.29276 34.0194 8.89383C33.8496 8.65546 32.0345 7.01758 30.6479 5.85165C30.4918 5.72029 30.4216 5.6074 30.4356 5.50976C30.4549 5.37396 30.5081 5.3611 31.2084 5.32274C31.622 5.30011 32.0219 5.25662 32.0971 5.22612C32.3581 5.12034 32.6124 4.90761 32.715 4.70924C32.8093 4.52688 32.8068 4.48797 32.6858 4.25309C32.379 3.65778 31.858 3.35732 31.0288 3.29756C30.2945 3.24463 30.0255 3.30529 29.9646 3.53778C29.8995 3.78592 29.8977 4.22786 29.9609 4.45323C30.0022 4.60045 29.9864 4.64483 29.8812 4.6782C29.5733 4.77598 29.4151 4.64845 29.0177 3.98244C28.1216 2.48043 26.6761 0.817728 25.9211 0.420447C25.0871 -0.0183413 25.3688 -0.00446046 17.4628 0.0018304C11.5145 0.00654855 10.2205 0.0241218 9.88797 0.104604ZM3.89169 10.0451C4.29654 10.2518 4.46438 10.5092 4.60678 11.1419C4.63809 11.281 4.73988 11.3482 5.15314 11.5023C6.39798 11.9665 7.77265 13.2702 7.62744 13.8488C7.5465 14.1713 7.43883 14.1848 4.9566 14.1848H2.63222L2.25307 14.0069C1.72776 13.7605 1.41158 13.4618 1.23076 13.0414C1.09957 12.7363 1.08193 12.602 1.11187 12.1348C1.19036 10.9107 1.78984 9.97894 2.5843 9.84621C2.93822 9.78707 3.57612 9.88416 3.89169 10.0451ZM32.9102 10.0434C33.4183 10.3575 33.8176 11.1882 33.8887 12.0794C33.9629 13.0089 33.622 13.6069 32.8018 13.9856L32.3706 14.1848H30.0462C27.564 14.1848 27.4563 14.1713 27.3753 13.8488C27.2189 13.2252 28.8037 11.7891 30.0648 11.4119C30.29 11.3445 30.3658 11.284 30.3957 11.1477C30.5821 10.2982 30.9389 9.96376 31.7752 9.85449C32.2617 9.7909 32.5902 9.8456 32.9102 10.0434ZM25.55 12.6292C25.8608 12.7008 26.015 12.8007 26.1214 12.9996C26.1862 13.1208 25.9031 13.1249 17.533 13.1249C9.53883 13.1249 8.87919 13.1163 8.89963 13.0125C8.94065 12.8037 9.25136 12.6491 9.74208 12.5931C10.4371 12.5139 25.1958 12.5475 25.55 12.6292ZM26.1665 13.6605C26.2563 13.6725 26.2811 13.9267 26.2105 14.1108C26.173 14.2087 25.3421 14.219 17.5014 14.219C9.66072 14.219 8.82983 14.2087 8.7923 14.1108C8.74266 13.9814 8.73747 13.7081 8.78382 13.6617C8.81294 13.6326 25.9497 13.6314 26.1665 13.6605ZM26.0469 14.7772C26.0469 14.8111 26.0023 14.9455 25.9478 15.0759L25.8488 15.313H17.5014H9.15401L9.05495 15.0759C9.00047 14.9455 8.95589 14.8116 8.95589 14.7785C8.95589 14.744 12.6152 14.7176 17.5014 14.7168C22.5298 14.7161 26.0469 14.7409 26.0469 14.7772ZM25.5292 15.8943C25.5265 15.9319 25.3931 16.055 25.2328 16.1678L24.9413 16.3729L17.6835 16.3927C13.6917 16.4035 10.3294 16.3951 10.2116 16.3739C9.96686 16.33 9.4114 15.9527 9.46466 15.8666C9.51702 15.7818 25.5353 15.8094 25.5292 15.8943ZM6.53526 17.7686C6.98427 17.9626 7.40792 18.4078 7.87499 19.1765C8.29119 19.8615 8.7508 20.6883 8.7508 20.7522C8.7508 20.7751 7.80478 20.7817 6.64861 20.767C4.87394 20.7444 4.48892 20.7213 4.17752 20.6194C3.12827 20.2759 2.41763 19.721 2.26859 19.1288C2.1614 18.703 2.16427 17.8331 2.27338 17.6838C2.42098 17.482 2.68411 17.4649 4.45904 17.5425C5.98691 17.6094 6.22748 17.6356 6.53526 17.7686ZM32.6859 17.6456C32.8175 17.7772 32.8276 17.8483 32.8014 18.449C32.757 19.4662 32.4694 19.8808 31.4834 20.3491C30.6842 20.7287 30.282 20.7808 28.1418 20.7822C26.4321 20.7832 26.2416 20.7723 26.2789 20.675C26.3018 20.6156 26.5019 20.2518 26.7236 19.8667C27.5973 18.3498 27.8344 18.0615 28.4351 17.7865C28.8393 17.6014 29.6069 17.5349 31.6015 17.512C32.4747 17.5019 32.5517 17.5114 32.6859 17.6456ZM25.3361 18.748C25.2731 19.0632 24.7774 19.8686 24.4368 20.2093C24.219 20.4272 24.0308 20.5358 23.6877 20.6418C23.2399 20.7801 23.1005 20.7834 17.5428 20.7834C11.3711 20.7834 11.3606 20.7827 10.7899 20.4068C10.3824 20.1383 9.64562 19.0097 9.64104 18.6471C9.6396 18.5346 10.074 18.528 17.5098 18.528H25.3801L25.3361 18.748Z"/>
</mask>
<path fill-rule="evenodd" clip-rule="evenodd" d="M9.88797 0.104604C9.24063 0.261397 8.74841 0.569513 8.11269 1.2161C7.25055 2.09293 6.78137 2.69596 6.06833 3.84363C5.85258 4.19086 5.65261 4.51081 5.62397 4.55457C5.55683 4.65721 5.18609 4.72983 5.07999 4.66117C5.02086 4.62295 5.01594 4.53303 5.06208 4.33651C5.1286 4.05301 5.09011 3.57579 4.98722 3.40929C4.88912 3.25051 3.85129 3.23698 3.37048 3.38823C2.70017 3.59911 2.08093 4.31285 2.2636 4.66398C2.49522 5.10926 2.89727 5.28349 3.79441 5.32725C4.91763 5.38202 4.93178 5.35365 2.90985 7.10394C1.98714 7.90275 1.13963 8.6731 1.02655 8.81595C0.710987 9.21446 0.348657 10.0373 0.240779 10.6002C0.134883 11.1527 -0.000409254 13.7661 9.30459e-07 15.2518C0.000547843 17.5765 0.356109 19.6932 0.886477 20.5293L1.09403 20.8565V22.1909C1.09403 23.5745 1.14271 23.8541 1.40092 23.9532C1.53881 24.0061 8.27861 24.0167 8.41534 23.9642C8.67204 23.8657 8.7508 23.5619 8.7508 22.6703V21.809H17.5014H26.252V22.6969C26.252 23.5697 26.2552 23.5883 26.44 23.7916L26.628 23.9985L30.0521 24C31.9353 24.0008 33.5285 23.9814 33.5924 23.9568C33.8608 23.8538 33.9088 23.5859 33.9088 22.1909V20.8565L34.1163 20.5293C34.6588 19.674 35.0063 17.5317 34.9999 15.0809C34.9955 13.3794 34.8236 10.6811 34.6924 10.253C34.5517 9.79397 34.3036 9.29276 34.0194 8.89383C33.8496 8.65546 32.0345 7.01758 30.6479 5.85165C30.4918 5.72029 30.4216 5.6074 30.4356 5.50976C30.4549 5.37396 30.5081 5.3611 31.2084 5.32274C31.622 5.30011 32.0219 5.25662 32.0971 5.22612C32.3581 5.12034 32.6124 4.90761 32.715 4.70924C32.8093 4.52688 32.8068 4.48797 32.6858 4.25309C32.379 3.65778 31.858 3.35732 31.0288 3.29756C30.2945 3.24463 30.0255 3.30529 29.9646 3.53778C29.8995 3.78592 29.8977 4.22786 29.9609 4.45323C30.0022 4.60045 29.9864 4.64483 29.8812 4.6782C29.5733 4.77598 29.4151 4.64845 29.0177 3.98244C28.1216 2.48043 26.6761 0.817728 25.9211 0.420447C25.0871 -0.0183413 25.3688 -0.00446046 17.4628 0.0018304C11.5145 0.00654855 10.2205 0.0241218 9.88797 0.104604ZM3.89169 10.0451C4.29654 10.2518 4.46438 10.5092 4.60678 11.1419C4.63809 11.281 4.73988 11.3482 5.15314 11.5023C6.39798 11.9665 7.77265 13.2702 7.62744 13.8488C7.5465 14.1713 7.43883 14.1848 4.9566 14.1848H2.63222L2.25307 14.0069C1.72776 13.7605 1.41158 13.4618 1.23076 13.0414C1.09957 12.7363 1.08193 12.602 1.11187 12.1348C1.19036 10.9107 1.78984 9.97894 2.5843 9.84621C2.93822 9.78707 3.57612 9.88416 3.89169 10.0451ZM32.9102 10.0434C33.4183 10.3575 33.8176 11.1882 33.8887 12.0794C33.9629 13.0089 33.622 13.6069 32.8018 13.9856L32.3706 14.1848H30.0462C27.564 14.1848 27.4563 14.1713 27.3753 13.8488C27.2189 13.2252 28.8037 11.7891 30.0648 11.4119C30.29 11.3445 30.3658 11.284 30.3957 11.1477C30.5821 10.2982 30.9389 9.96376 31.7752 9.85449C32.2617 9.7909 32.5902 9.8456 32.9102 10.0434ZM25.55 12.6292C25.8608 12.7008 26.015 12.8007 26.1214 12.9996C26.1862 13.1208 25.9031 13.1249 17.533 13.1249C9.53883 13.1249 8.87919 13.1163 8.89963 13.0125C8.94065 12.8037 9.25136 12.6491 9.74208 12.5931C10.4371 12.5139 25.1958 12.5475 25.55 12.6292ZM26.1665 13.6605C26.2563 13.6725 26.2811 13.9267 26.2105 14.1108C26.173 14.2087 25.3421 14.219 17.5014 14.219C9.66072 14.219 8.82983 14.2087 8.7923 14.1108C8.74266 13.9814 8.73747 13.7081 8.78382 13.6617C8.81294 13.6326 25.9497 13.6314 26.1665 13.6605ZM26.0469 14.7772C26.0469 14.8111 26.0023 14.9455 25.9478 15.0759L25.8488 15.313H17.5014H9.15401L9.05495 15.0759C9.00047 14.9455 8.95589 14.8116 8.95589 14.7785C8.95589 14.744 12.6152 14.7176 17.5014 14.7168C22.5298 14.7161 26.0469 14.7409 26.0469 14.7772ZM25.5292 15.8943C25.5265 15.9319 25.3931 16.055 25.2328 16.1678L24.9413 16.3729L17.6835 16.3927C13.6917 16.4035 10.3294 16.3951 10.2116 16.3739C9.96686 16.33 9.4114 15.9527 9.46466 15.8666C9.51702 15.7818 25.5353 15.8094 25.5292 15.8943ZM6.53526 17.7686C6.98427 17.9626 7.40792 18.4078 7.87499 19.1765C8.29119 19.8615 8.7508 20.6883 8.7508 20.7522C8.7508 20.7751 7.80478 20.7817 6.64861 20.767C4.87394 20.7444 4.48892 20.7213 4.17752 20.6194C3.12827 20.2759 2.41763 19.721 2.26859 19.1288C2.1614 18.703 2.16427 17.8331 2.27338 17.6838C2.42098 17.482 2.68411 17.4649 4.45904 17.5425C5.98691 17.6094 6.22748 17.6356 6.53526 17.7686ZM32.6859 17.6456C32.8175 17.7772 32.8276 17.8483 32.8014 18.449C32.757 19.4662 32.4694 19.8808 31.4834 20.3491C30.6842 20.7287 30.282 20.7808 28.1418 20.7822C26.4321 20.7832 26.2416 20.7723 26.2789 20.675C26.3018 20.6156 26.5019 20.2518 26.7236 19.8667C27.5973 18.3498 27.8344 18.0615 28.4351 17.7865C28.8393 17.6014 29.6069 17.5349 31.6015 17.512C32.4747 17.5019 32.5517 17.5114 32.6859 17.6456ZM25.3361 18.748C25.2731 19.0632 24.7774 19.8686 24.4368 20.2093C24.219 20.4272 24.0308 20.5358 23.6877 20.6418C23.2399 20.7801 23.1005 20.7834 17.5428 20.7834C11.3711 20.7834 11.3606 20.7827 10.7899 20.4068C10.3824 20.1383 9.64562 19.0097 9.64104 18.6471C9.6396 18.5346 10.074 18.528 17.5098 18.528H25.3801L25.3361 18.748Z" stroke="#085C8B" mask="url(#path-1-inside-1)"/>
<path d="M28.9948 6.28861C28.9364 6.4524 28.4526 6.68392 27.9657 6.78089C27.2033 6.93288 24.1497 6.99978 17.9654 7C11.8076 7.00022 8.80529 6.93392 8.03402 6.78067C7.54745 6.68399 7.06337 6.45248 7.00495 6.28861M28.9948 6.28861C29.0729 6.06927 28.2639 4.61769 27.1955 3.06029M28.9948 6.28861L28.8111 6.22317C28.806 6.23736 28.8051 6.24776 28.805 6.25152M28.9948 6.28861L28.8111 6.2231C28.8124 6.21945 28.8133 6.21761 28.8131 6.21751C28.8129 6.21735 28.81 6.22154 28.8019 6.22971M27.1955 3.06029C26.3037 1.76032 26.0085 1.49339 25.1036 1.16825M27.1955 3.06029L27.0347 3.17061C27.5663 3.94553 28.0323 4.69258 28.3548 5.27115C28.5163 5.561 28.6398 5.80492 28.7175 5.98714C28.7565 6.07875 28.7818 6.1497 28.7951 6.20031C28.7982 6.21215 28.8004 6.22188 28.8019 6.22971M27.1955 3.06029L27.0347 3.1706C26.5879 2.51929 26.3028 2.14581 26.0237 1.89333C25.7521 1.6477 25.4788 1.51028 25.0376 1.35177M25.1036 1.16825C24.7473 1.04032 24.3185 1.03104 18.0688 1.01604L11.937 1.00126C11.5904 1.00043 11.2462 1.05778 10.9186 1.17092C9.95298 1.50438 9.61283 1.82477 8.59038 3.36397M25.1036 1.16825L25.0376 1.35177C25.0376 1.35177 25.0376 1.35177 25.0376 1.35177M25.1036 1.16825L25.0376 1.35177M8.59038 3.36397C7.6238 4.8192 6.93447 6.09081 7.00495 6.28861M8.59038 3.36397L8.75282 3.47186C8.75282 3.47187 8.75282 3.47187 8.75281 3.47187M8.59038 3.36397L8.75281 3.47187M7.00495 6.28861L7.18863 6.22313C7.18733 6.21947 7.18644 6.21763 7.1866 6.21753C7.18687 6.21737 7.18992 6.22179 7.19847 6.23038M7.00495 6.28861L7.18864 6.22315C7.19407 6.23838 7.19493 6.24956 7.19501 6.25339M7.19847 6.23038C7.1962 6.24155 7.19532 6.24875 7.19506 6.25254C7.19504 6.25286 7.19502 6.25314 7.19501 6.25339M7.19847 6.23038C7.20652 6.23848 7.21946 6.25028 7.23955 6.26547C7.28701 6.30134 7.35586 6.34222 7.44305 6.38391C7.61698 6.46708 7.84409 6.54412 8.07202 6.5894C8.43721 6.66197 9.36104 6.71709 10.9841 6.75293C12.5985 6.78859 14.8868 6.80511 17.9654 6.805C21.0572 6.80489 23.365 6.78811 24.9945 6.7524C26.6329 6.71651 27.567 6.66154 27.9276 6.58965L27.9276 6.58964C28.1557 6.54421 28.3829 6.4671 28.5568 6.3839C28.6439 6.34219 28.7128 6.30131 28.7602 6.26544C28.7808 6.24985 28.7939 6.23781 28.8019 6.22971M7.19847 6.23038C7.1995 6.22532 7.20081 6.21943 7.20249 6.21268C7.2132 6.16937 7.23415 6.10775 7.26736 6.02699C7.33338 5.86645 7.43946 5.65037 7.5802 5.39076C7.86105 4.87268 8.27178 4.19608 8.75281 3.47187M7.19501 6.25339C7.19496 6.25438 7.19497 6.25484 7.19499 6.25483C7.19501 6.25481 7.19503 6.25431 7.19501 6.25339ZM28.8019 6.22971C28.8037 6.23863 28.8045 6.24507 28.8048 6.24928C28.8049 6.2502 28.805 6.25094 28.805 6.25152M28.805 6.25152C28.805 6.25255 28.805 6.25309 28.805 6.25305C28.805 6.25302 28.805 6.25253 28.805 6.25152ZM25.0376 1.35177C24.8945 1.30038 24.7309 1.26506 23.792 1.24475C22.8614 1.22461 21.1943 1.21854 18.0684 1.21104L11.9365 1.19626C11.6118 1.19548 11.2892 1.24922 10.9823 1.35524L10.9823 1.35524C10.5142 1.51689 10.2157 1.66878 9.90951 1.95724C9.5945 2.25396 9.26508 2.70069 8.75281 3.47187" stroke="#085C8B" stroke-width="0.39"/>
</svg>
