<svg width="42" height="40" viewBox="0 0 42 40" fill="none" xmlns="http://www.w3.org/2000/svg">
<rect x="11.25" y="16.25" width="4.5" height="16.5" stroke="#085C8B" stroke-width="0.5"/>
<path d="M1.2559 7.20499C1.38635 4.44645 3.66416 2.25 6.45499 2.25H25C31.4058 2.25 36.6144 7.37608 36.7474 13.75H11.6241V7.45499V7.20499H11.3741H1.2559Z" stroke="#085C8B" stroke-width="0.5"/>
<circle cx="20" cy="8" r="4.75" stroke="#085C8B" stroke-width="0.5"/>
<path d="M27.4424 12.3759C27.3651 12.1143 27.5023 11.8372 27.7573 11.7402L28.6609 11.3965L28.4639 12.331C28.4126 12.5743 28.1955 12.75 27.945 12.75C27.7129 12.75 27.5077 12.597 27.4424 12.3759Z" stroke="#085C8B" stroke-width="0.5"/>
<path d="M31.4424 12.3759C31.3651 12.1143 31.5023 11.8372 31.7573 11.7402L32.6609 11.3965L32.4639 12.331C32.4126 12.5743 32.1955 12.75 31.945 12.75C31.7129 12.75 31.5077 12.597 31.4424 12.3759Z" stroke="#085C8B" stroke-width="0.5"/>
<mask id="path-6-inside-1" fill="white">
<path d="M24 7.5C24 7.04037 23.9095 6.58525 23.7336 6.16061C23.5577 5.73597 23.2999 5.35013 22.9749 5.02513C22.6499 4.70012 22.264 4.44231 21.8394 4.26642C21.4148 4.09053 20.9596 4 20.5 4L20.5 6.37457C20.6478 6.37457 20.7941 6.40368 20.9307 6.46023C21.0672 6.51679 21.1913 6.59969 21.2958 6.7042C21.4003 6.8087 21.4832 6.93277 21.5398 7.06932C21.5963 7.20586 21.6254 7.35221 21.6254 7.5H24Z"/>
</mask>
<path d="M24 7.5C24 7.04037 23.9095 6.58525 23.7336 6.16061C23.5577 5.73597 23.2999 5.35013 22.9749 5.02513C22.6499 4.70012 22.264 4.44231 21.8394 4.26642C21.4148 4.09053 20.9596 4 20.5 4L20.5 6.37457C20.6478 6.37457 20.7941 6.40368 20.9307 6.46023C21.0672 6.51679 21.1913 6.59969 21.2958 6.7042C21.4003 6.8087 21.4832 6.93277 21.5398 7.06932C21.5963 7.20586 21.6254 7.35221 21.6254 7.5H24Z" stroke="#085C8B" mask="url(#path-6-inside-1)"/>
<mask id="path-7-inside-2" fill="white">
<path d="M16 7.5C16 7.04037 16.0905 6.58525 16.2664 6.16061C16.4423 5.73597 16.7001 5.35013 17.0251 5.02513C17.3501 4.70012 17.736 4.44231 18.1606 4.26642C18.5852 4.09053 19.0404 4 19.5 4L19.5 6.37457C19.3522 6.37457 19.2059 6.40368 19.0693 6.46023C18.9328 6.51679 18.8087 6.59969 18.7042 6.7042C18.5997 6.8087 18.5168 6.93277 18.4602 7.06932C18.4037 7.20586 18.3746 7.35221 18.3746 7.5H16Z"/>
</mask>
<path d="M16 7.5C16 7.04037 16.0905 6.58525 16.2664 6.16061C16.4423 5.73597 16.7001 5.35013 17.0251 5.02513C17.3501 4.70012 17.736 4.44231 18.1606 4.26642C18.5852 4.09053 19.0404 4 19.5 4L19.5 6.37457C19.3522 6.37457 19.2059 6.40368 19.0693 6.46023C18.9328 6.51679 18.8087 6.59969 18.7042 6.7042C18.5997 6.8087 18.5168 6.93277 18.4602 7.06932C18.4037 7.20586 18.3746 7.35221 18.3746 7.5H16Z" stroke="#085C8B" mask="url(#path-7-inside-2)"/>
<mask id="path-8-inside-3" fill="white">
<path d="M16 8.5C16 8.95963 16.0905 9.41475 16.2664 9.83939C16.4423 10.264 16.7001 10.6499 17.0251 10.9749C17.3501 11.2999 17.736 11.5577 18.1606 11.7336C18.5852 11.9095 19.0404 12 19.5 12L19.5 9.62543C19.3522 9.62543 19.2059 9.59632 19.0693 9.53977C18.9328 9.48321 18.8087 9.40031 18.7042 9.2958C18.5997 9.1913 18.5168 9.06723 18.4602 8.93068C18.4037 8.79414 18.3746 8.64779 18.3746 8.5H16Z"/>
</mask>
<path d="M16 8.5C16 8.95963 16.0905 9.41475 16.2664 9.83939C16.4423 10.264 16.7001 10.6499 17.0251 10.9749C17.3501 11.2999 17.736 11.5577 18.1606 11.7336C18.5852 11.9095 19.0404 12 19.5 12L19.5 9.62543C19.3522 9.62543 19.2059 9.59632 19.0693 9.53977C18.9328 9.48321 18.8087 9.40031 18.7042 9.2958C18.5997 9.1913 18.5168 9.06723 18.4602 8.93068C18.4037 8.79414 18.3746 8.64779 18.3746 8.5H16Z" stroke="#085C8B" mask="url(#path-8-inside-3)"/>
<mask id="path-9-inside-4" fill="white">
<path d="M24 8.5C24 8.95963 23.9095 9.41475 23.7336 9.83939C23.5577 10.264 23.2999 10.6499 22.9749 10.9749C22.6499 11.2999 22.264 11.5577 21.8394 11.7336C21.4148 11.9095 20.9596 12 20.5 12L20.5 9.62543C20.6478 9.62543 20.7941 9.59632 20.9307 9.53977C21.0672 9.48321 21.1913 9.40031 21.2958 9.2958C21.4003 9.1913 21.4832 9.06723 21.5398 8.93068C21.5963 8.79414 21.6254 8.64779 21.6254 8.5H24Z"/>
</mask>
<path d="M24 8.5C24 8.95963 23.9095 9.41475 23.7336 9.83939C23.5577 10.264 23.2999 10.6499 22.9749 10.9749C22.6499 11.2999 22.264 11.5577 21.8394 11.7336C21.4148 11.9095 20.9596 12 20.5 12L20.5 9.62543C20.6478 9.62543 20.7941 9.59632 20.9307 9.53977C21.0672 9.48321 21.1913 9.40031 21.2958 9.2958C21.4003 9.1913 21.4832 9.06723 21.5398 8.93068C21.5963 8.79414 21.6254 8.64779 21.6254 8.5H24Z" stroke="#085C8B" mask="url(#path-9-inside-4)"/>
<path d="M29.9156 22.737L28.2297 23.4485V22.1957V21.9457H27.9797H26.8289L25.25 20.0061V16.25H32.75V20.0071L31.1941 21.9457H30.1656H29.9156V22.1957V22.737ZM29.9156 24.611L28.2297 25.2434V24.6823L29.9156 23.9615V24.611ZM28.2297 26.3091L29.9156 25.6839V26.3944L28.2297 27.0064V26.3091ZM29.1122 29.6059L28.2297 28.5762V28.0999L29.9156 27.5441V28.5823L29.1122 29.6059Z" stroke="#085C8B" stroke-width="0.5"/>
<path d="M2.54286 9H1V14.7037L2.28571 16H8.84286L10 14.7037V9.12963H8.58571V13.2778H7.42857V9.12963H6.14286V13.2778H4.85714V9H3.57143V13.2778H2.54286V9Z" stroke="#085C8B" stroke-width="0.5"/>
<path d="M41 37.375V39H4V37.375L5.80488 35.625H9.80139V34H18.439V35.625H23.5958L25.2718 34H27.5923V35.625H30.4286V34H32.7491L34.4251 35.625H39.1951L41 37.375Z" stroke="#085C8B" stroke-width="0.5"/>
</svg>
