<svg width="148" height="142" viewBox="0 0 148 142" fill="none" xmlns="http://www.w3.org/2000/svg">
<rect x="40.5029" y="56.0323" width="18.6468" height="59.2043" stroke="#085C8B" stroke-width="0.5"/>
<path d="M40.8297 26.8922H4.03369V21.1C4.03369 13.5061 10.1898 7.35001 17.7837 7.35001H118.341C125.934 7.35001 132.091 13.5061 132.091 21.1V50.9393H41.0797V27.1422V26.8922H40.8297Z" stroke="#085C8B" stroke-width="0.5"/>
<path d="M86.7254 29.148C86.7254 38.3729 79.3027 45.8481 70.1503 45.8481C60.9979 45.8481 53.5752 38.3729 53.5752 29.148C53.5752 19.923 60.9979 12.4478 70.1503 12.4478C79.3027 12.4478 86.7254 19.923 86.7254 29.148Z" stroke="#085C8B" stroke-width="0.5"/>
<path d="M95.423 43.5933C94.9563 42.0134 95.7851 40.3407 97.3248 39.7549L102.764 37.6856L101.574 43.3302C101.264 44.7993 99.9579 45.8522 98.4547 45.8522C97.0572 45.8522 95.8184 44.9321 95.423 43.5933Z" stroke="#085C8B" stroke-width="0.5"/>
<path d="M110.829 43.5933C110.363 42.0134 111.191 40.3407 112.731 39.7549L118.17 37.6856L116.98 43.3302C116.67 44.7993 115.364 45.8522 113.861 45.8522C112.463 45.8522 111.225 44.9321 110.829 43.5933Z" stroke="#085C8B" stroke-width="0.5"/>
<mask id="path-6-inside-1" fill="white">
<path d="M83.1789 28.2266C83.1789 26.6238 82.8655 25.0367 82.2567 23.5559C81.6478 22.0751 80.7555 20.7297 79.6305 19.5963C78.5055 18.463 77.17 17.564 75.7001 16.9506C74.2303 16.3373 72.6549 16.0216 71.0639 16.0216L71.0639 24.302C71.5755 24.302 72.0821 24.4035 72.5547 24.6008C73.0273 24.798 73.4568 25.0871 73.8185 25.4515C74.1803 25.8159 74.4672 26.2486 74.663 26.7247C74.8587 27.2009 74.9595 27.7112 74.9595 28.2266H83.1789Z"/>
</mask>
<path d="M83.1789 28.2266C83.1789 26.6238 82.8655 25.0367 82.2567 23.5559C81.6478 22.0751 80.7555 20.7297 79.6305 19.5963C78.5055 18.463 77.17 17.564 75.7001 16.9506C74.2303 16.3373 72.6549 16.0216 71.0639 16.0216L71.0639 24.302C71.5755 24.302 72.0821 24.4035 72.5547 24.6008C73.0273 24.798 73.4568 25.0871 73.8185 25.4515C74.1803 25.8159 74.4672 26.2486 74.663 26.7247C74.8587 27.2009 74.9595 27.7112 74.9595 28.2266H83.1789Z" stroke="#085C8B" mask="url(#path-6-inside-1)"/>
<mask id="path-7-inside-2" fill="white">
<path d="M57.1251 28.2266C57.1251 26.6238 57.4385 25.0367 58.0473 23.5559C58.6561 22.0751 59.5485 20.7297 60.6735 19.5963C61.7985 18.463 63.134 17.564 64.6038 16.9506C66.0737 16.3373 67.6491 16.0216 69.24 16.0216L69.24 24.302C68.7285 24.302 68.2219 24.4035 67.7493 24.6008C67.2766 24.798 66.8472 25.0871 66.4854 25.4515C66.1237 25.8159 65.8368 26.2486 65.641 26.7247C65.4452 27.2009 65.3444 27.7112 65.3444 28.2266H57.1251Z"/>
</mask>
<path d="M57.1251 28.2266C57.1251 26.6238 57.4385 25.0367 58.0473 23.5559C58.6561 22.0751 59.5485 20.7297 60.6735 19.5963C61.7985 18.463 63.134 17.564 64.6038 16.9506C66.0737 16.3373 67.6491 16.0216 69.24 16.0216L69.24 24.302C68.7285 24.302 68.2219 24.4035 67.7493 24.6008C67.2766 24.798 66.8472 25.0871 66.4854 25.4515C66.1237 25.8159 65.8368 26.2486 65.641 26.7247C65.4452 27.2009 65.3444 27.7112 65.3444 28.2266H57.1251Z" stroke="#085C8B" mask="url(#path-7-inside-2)"/>
<mask id="path-8-inside-3" fill="white">
<path d="M57.1251 30.0623C57.1251 31.6651 57.4385 33.2522 58.0473 34.733C58.6561 36.2138 59.5485 37.5592 60.6735 38.6926C61.7985 39.8259 63.134 40.7249 64.6038 41.3383C66.0737 41.9516 67.6491 42.2673 69.24 42.2673L69.24 33.9869C68.7285 33.9869 68.2219 33.8854 67.7493 33.6882C67.2766 33.4909 66.8472 33.2018 66.4854 32.8374C66.1237 32.473 65.8368 32.0404 65.641 31.5642C65.4452 31.0881 65.3444 30.5777 65.3444 30.0623H57.1251Z"/>
</mask>
<path d="M57.1251 30.0623C57.1251 31.6651 57.4385 33.2522 58.0473 34.733C58.6561 36.2138 59.5485 37.5592 60.6735 38.6926C61.7985 39.8259 63.134 40.7249 64.6038 41.3383C66.0737 41.9516 67.6491 42.2673 69.24 42.2673L69.24 33.9869C68.7285 33.9869 68.2219 33.8854 67.7493 33.6882C67.2766 33.4909 66.8472 33.2018 66.4854 32.8374C66.1237 32.473 65.8368 32.0404 65.641 31.5642C65.4452 31.0881 65.3444 30.5777 65.3444 30.0623H57.1251Z" stroke="#085C8B" mask="url(#path-8-inside-3)"/>
<mask id="path-9-inside-4" fill="white">
<path d="M83.1789 30.0623C83.1789 31.6651 82.8655 33.2522 82.2567 34.733C81.6478 36.2138 80.7555 37.5592 79.6305 38.6926C78.5055 39.8259 77.17 40.7249 75.7001 41.3383C74.2303 41.9516 72.6549 42.2673 71.0639 42.2673L71.0639 33.9869C71.5755 33.9869 72.0821 33.8854 72.5547 33.6882C73.0273 33.4909 73.4568 33.2018 73.8185 32.8374C74.1803 32.473 74.4672 32.0404 74.663 31.5642C74.8587 31.0881 74.9595 30.5777 74.9595 30.0623H83.1789Z"/>
</mask>
<path d="M83.1789 30.0623C83.1789 31.6651 82.8655 33.2522 82.2567 34.733C81.6478 36.2138 80.7555 37.5592 79.6305 38.6926C78.5055 39.8259 77.17 40.7249 75.7001 41.3383C74.2303 41.9516 72.6549 42.2673 71.0639 42.2673L71.0639 33.9869C71.5755 33.9869 72.0821 33.8854 72.5547 33.6882C73.0273 33.4909 73.4568 33.2018 73.8185 32.8374C74.1803 32.473 74.4672 32.0404 74.663 31.5642C74.8587 31.0881 74.9595 30.5777 74.9595 30.0623H83.1789Z" stroke="#085C8B" mask="url(#path-9-inside-4)"/>
<path d="M107.426 79.3693L100.245 82.3372V77.103V76.853H99.9953H95.6512L89.7751 69.7837V56.0323H117.386V69.7847L111.593 76.853H107.676H107.426V77.103V79.3693ZM107.426 85.836L100.245 88.474V85.2584L107.426 82.2517V85.836ZM100.245 90.8347L107.426 88.2266V91.9779L100.245 94.5309V90.8347ZM103.996 103.57L100.245 99.2838V96.9804L107.426 94.6616V99.2899L103.996 103.57Z" stroke="#085C8B" stroke-width="0.5"/>
<path d="M9.25419 30.9828H3.78369V51.1904L8.34244 55.783H31.5921L35.695 51.1904V31.4421H30.6803V46.1385H26.5775V31.4421H22.0187V46.1385H17.4599V30.9828H12.9012V46.1385H9.25419V30.9828Z" stroke="#085C8B" stroke-width="0.5"/>
<path d="M145.106 132.48V138.45H14.27V132.48L20.6523 126.05H34.7844V120.08H65.3281V126.05H83.5631L89.4894 120.08H97.6952V126.05H107.724V120.08H115.93L121.857 126.05H138.724L145.106 132.48Z" stroke="#085C8B" stroke-width="0.5"/>
</svg>
