<svg width="112" height="142" viewBox="0 0 112 142" fill="none" xmlns="http://www.w3.org/2000/svg">
<path d="M47.2255 62.7645L47.2417 62.515C48.0263 62.5659 48.7781 62.635 49.358 62.7055C49.6475 62.7407 49.897 62.7766 50.0874 62.8112C50.1823 62.8285 50.2658 62.846 50.3337 62.8638C50.3927 62.8793 50.4675 62.9015 50.525 62.9366M47.2255 62.7645L50.3945 63.1499M47.2255 62.7645L47.2417 62.515C34.2888 61.675 20.0587 57.1524 10.4727 50.8361L10.3351 51.0449L10.4727 50.8361C8.30482 49.4079 5.61283 47.1572 3.5255 45.1604C2.48187 44.162 1.59545 43.2328 1.00361 42.5065C0.706599 42.142 0.490985 41.8373 0.365975 41.6057C0.323331 41.5267 0.29415 41.4615 0.27565 41.4093C0.306476 41.4076 0.340841 41.4058 0.378808 41.4041C0.593019 41.3944 0.90978 41.3849 1.32353 41.3756C2.15043 41.3572 3.35811 41.3401 4.89287 41.3243C7.96208 41.2927 12.3359 41.2663 17.5798 41.2452C28.0674 41.2031 42.0336 41.182 56 41.182C69.9664 41.182 83.9325 41.2031 94.4202 41.2452C99.6641 41.2663 104.038 41.2927 107.107 41.3243C108.642 41.3401 109.85 41.3572 110.676 41.3756C111.09 41.3849 111.407 41.3944 111.621 41.4041C111.659 41.4058 111.694 41.4076 111.724 41.4093C111.706 41.4616 111.677 41.527 111.634 41.6062C111.509 41.838 111.293 42.1429 110.996 42.5076C110.404 43.2343 109.517 44.1637 108.473 45.1618C106.386 47.1582 103.696 49.4061 101.535 50.8263C91.8856 57.1691 77.7189 61.6748 64.7583 62.515L64.7745 62.7645L64.7583 62.515C63.9735 62.5659 63.2204 62.6358 62.6385 62.7075C62.3479 62.7433 62.0972 62.7799 61.9054 62.8153C61.8098 62.833 61.7256 62.851 61.6569 62.8692C61.5967 62.8852 61.522 62.9078 61.4645 62.9429L61.4643 62.943C61.394 62.9861 61.3584 63.0506 61.3442 63.078C61.3255 63.1142 61.3108 63.154 61.2987 63.1917C61.2744 63.2681 61.252 63.3659 61.2308 63.4784C61.1879 63.7049 61.1448 64.0187 61.1021 64.4004C61.0164 65.1654 60.9302 66.2217 60.8517 67.4395C60.6945 69.8759 60.5672 72.9701 60.536 75.696L60.524 76.7362M47.2255 62.7645L60.7709 77.0075L60.7738 76.7569L60.524 76.7362M50.525 62.9366L50.3945 63.1499M50.525 62.9366C50.525 62.9366 50.5249 62.9366 50.5249 62.9366L50.3945 63.1499M50.525 62.9366C50.589 62.9758 50.6281 63.0313 50.6508 63.0695C50.6756 63.1113 50.6954 63.1579 50.7117 63.204C50.7446 63.2964 50.7735 63.4148 50.8 63.5535C50.8533 63.8326 50.9031 64.2272 50.9503 64.7352C51.0448 65.7532 51.1312 67.2518 51.2115 69.2488C51.2768 70.871 51.3645 72.3727 51.4531 73.4847C51.4975 74.0412 51.5419 74.4975 51.5834 74.8216C51.6043 74.9843 51.6239 75.1093 51.6417 75.1955C51.6463 75.2178 51.6505 75.2361 51.6541 75.2508M50.3945 63.1499C50.617 63.2859 50.8011 65.2667 50.9617 69.2589C51.0924 72.508 51.3133 75.2791 51.4525 75.4168C51.7862 75.7469 56.4782 76.6535 58.8765 76.8511L60.5211 76.9868L60.524 76.7362M51.6541 75.2508C51.6315 75.2396 51.623 75.2336 51.6229 75.2338C51.6228 75.2339 51.6249 75.2356 51.6283 75.2391C51.6539 75.2644 51.6643 75.2874 51.6646 75.288C51.6666 75.2921 51.6659 75.2916 51.6633 75.2835C51.6607 75.2756 51.6577 75.2649 51.6541 75.2508ZM51.6541 75.2508C51.6588 75.2532 51.6641 75.2557 51.6701 75.2585C51.7125 75.2782 51.7722 75.3018 51.8503 75.3287C52.0061 75.3823 52.2188 75.4437 52.4781 75.5102C52.9957 75.643 53.6831 75.7924 54.4377 75.9382C55.9481 76.23 57.7108 76.5042 58.8971 76.602L60.524 76.7362M33.108 9.30402L32.9104 9.1509L33.108 9.30402C36.813 4.52213 44.2436 1.10443 52.6027 0.395035C57.4804 -0.0187931 65.4068 0.483244 70.2607 1.51388L70.3126 1.26933L70.2607 1.51388C83.9577 4.42179 96.0645 14.5947 101.498 27.767C102.007 29.0003 102.639 30.8351 103.145 32.4663C103.398 33.2814 103.618 34.0427 103.775 34.6501C103.853 34.954 103.915 35.2172 103.957 35.4282C103.987 35.5764 104.005 35.6911 104.014 35.773C103.999 35.7781 103.98 35.7836 103.957 35.7895C103.806 35.8284 103.552 35.8624 103.158 35.8891C102.375 35.9421 101.102 35.9627 99.1441 35.9627H94.1948L93.7393 34.6718C90.8267 26.4175 83.9094 19.0682 75.4128 15.1844C70.9981 13.1664 67.3111 12.3733 63.2704 13.0073C59.2417 13.6394 54.8887 15.6863 49.1321 19.2861C45.6444 21.467 43.1351 22.8028 40.935 23.5261C38.7448 24.2461 36.8527 24.3617 34.5945 24.0828C33.1826 23.9085 32.3818 23.7315 31.8141 23.3777C31.2583 23.0315 30.8963 22.4963 30.4249 21.504L30.1991 21.6113L30.4249 21.504C29.6887 19.9546 29.455 17.7636 29.8415 15.9809C30.0397 15.0662 30.511 13.8409 31.1103 12.6151C31.7088 11.3909 32.4264 10.1836 33.108 9.30402ZM39.1915 14.9074L39.1915 14.9074C39.6805 14.5904 40.1491 13.9299 40.4927 13.2205C40.839 12.5057 41.0847 11.6871 41.0893 11.0171C41.0912 10.7308 41.0636 10.4713 40.9663 10.2702C40.8579 10.0459 40.6703 9.91017 40.417 9.87867C40.1886 9.85027 39.9189 9.9077 39.6167 10.0134C39.3086 10.1212 38.9369 10.2903 38.4931 10.5146C37.6791 10.9261 37.0735 11.3883 36.6483 11.9772C36.2222 12.5673 35.9919 13.2645 35.8944 14.121L35.7437 15.4443L35.7074 15.7626L36.025 15.7204L37.1993 15.5644C37.5408 15.5192 37.9301 15.424 38.2838 15.3081C38.6342 15.1932 38.9685 15.0519 39.1915 14.9074ZM94.9002 60.2658L94.7998 60.0368L94.9002 60.2658C96.1976 59.6971 98.5786 58.4883 100.197 57.5775L100.074 57.3596L100.197 57.5775C101.765 56.6946 102.589 56.2391 103.021 56.0521C103.081 56.0263 103.13 56.0069 103.171 55.9929C103.16 56.0662 103.138 56.1744 103.101 56.3199C103.048 56.5276 102.971 56.7899 102.872 57.0946C102.676 57.7037 102.401 58.4723 102.088 59.2932C101.461 60.9364 100.687 62.7755 100.096 63.9498L100.319 64.0623L100.096 63.9498C94.9982 74.073 85.724 81.9332 74.6273 85.5294C67.2669 87.9148 59.038 88.3652 51.8431 86.7795C50.4789 86.4789 47.5982 85.6742 45.4458 84.9917L45.3702 85.23L45.4457 84.9917C42.3385 84.0066 40.0683 83.4532 38.1234 83.3015C36.1701 83.1491 34.5532 83.4025 32.7524 84.0154L32.8329 84.2521L32.7523 84.0154C27.3108 85.8677 23.4814 91.9149 24.1825 97.5593C24.7756 102.334 27.3921 105.964 31.123 107.949C34.8508 109.932 39.671 110.262 44.6652 108.483C45.7768 108.087 46.8817 107.703 47.1234 107.628L47.0493 107.389L47.1234 107.628C47.1383 107.623 47.1473 107.622 47.1514 107.622C47.1532 107.622 47.1545 107.623 47.1556 107.623C47.1568 107.623 47.1577 107.623 47.1585 107.624C47.1614 107.625 47.1816 107.633 47.2134 107.678C47.2826 107.776 47.3579 107.973 47.4216 108.319C47.547 108.999 47.6062 110.12 47.6084 111.776L47.6112 113.993L45.0214 114.816C38.4028 116.918 33.025 117.013 28.1699 115.148C22.9263 113.134 18.45 108.436 16.4588 102.843L16.228 102.925L16.4588 102.843C16.1072 101.856 15.9225 101.253 15.8221 100.426C15.7204 99.59 15.7046 98.5214 15.7046 96.6031C15.7046 94.6717 15.7197 93.6058 15.8234 92.7667C15.9259 91.9373 16.1154 91.326 16.479 90.3035C19.308 82.3475 25.9133 77.5108 34.5433 77.0872C38.375 76.899 41.1689 77.3556 46.6639 79.084C52.67 80.9734 55.0487 81.4515 59.3577 81.624C63.6902 81.7975 67.0975 81.3678 70.992 80.1543C79.5803 77.4784 87.2171 71.19 91.5713 63.2102C92.1317 62.1833 92.3875 61.7226 92.779 61.3758C93.174 61.0259 93.7149 60.7851 94.9002 60.2658ZM58.9011 92.8185L60.0001 92.8254L59.8364 96.3833C59.7395 98.4847 59.4692 105.51 59.2357 111.994C59.1188 115.236 58.9983 118.197 58.8983 120.355C58.8483 121.435 58.8034 122.313 58.7667 122.925C58.7483 123.231 58.7321 123.47 58.7184 123.632C58.7151 123.671 58.712 123.705 58.7091 123.735C58.6281 123.754 58.5135 123.775 58.3717 123.797C58.0882 123.841 57.7111 123.885 57.3101 123.917C56.6388 123.972 55.8377 123.92 55.1086 123.791C54.4018 123.667 53.7945 123.477 53.442 123.266C53.4337 123.242 53.4232 123.205 53.4114 123.152C53.3821 123.021 53.3512 122.823 53.319 122.545C53.2548 121.991 53.1887 121.148 53.1173 119.956C52.9747 117.575 52.8125 113.819 52.604 108.239C52.296 99.997 52.0435 92.9113 52.0424 92.4851C52.0419 92.3063 52.0466 92.1888 52.0601 92.109C52.0652 92.0787 52.0706 92.0603 52.0744 92.0499C52.0856 92.0482 52.105 92.0467 52.1364 92.048C52.2179 92.0513 52.3346 92.071 52.5102 92.1083L52.5103 92.1083C53.9509 92.4137 57.5117 92.8097 58.9011 92.8185ZM53.2643 123.45C54.0389 123.947 55.9368 124.281 57.3305 124.167L52.5621 91.8638C51.8628 91.7152 51.7907 91.7738 51.7924 92.4857C51.7935 92.9178 52.0463 100.011 52.3542 108.249C52.7712 119.407 53.0033 123.283 53.2643 123.45ZM64.9922 116.359L64.9922 116.359L64.3187 108.167L64.5673 108.193C64.5673 108.193 64.5673 108.193 64.5673 108.193C64.6163 107.73 64.6823 107.313 64.7482 107.015C64.7728 106.904 64.7964 106.814 64.8178 106.746C64.8476 106.757 64.8813 106.772 64.9191 106.789C65.0502 106.85 65.2152 106.94 65.4069 107.057C65.7896 107.289 66.2623 107.615 66.755 107.982C67.7438 108.719 68.7877 109.605 69.3308 110.219C71.7261 112.928 72.8623 115.96 72.8623 119.649C72.8623 123.512 71.6531 126.484 69.0367 129.072C66.2392 131.84 62.9484 133.135 58.094 133.344C55.6024 133.452 53.7459 133.327 52.0012 132.835C50.2564 132.344 48.6064 131.481 46.5346 130.088C44.7157 128.864 43.1353 128.109 41.5203 127.784C39.9031 127.458 38.2717 127.568 36.357 128.043C35.8374 128.172 35.4249 128.252 35.1122 128.284C34.7867 128.318 34.6127 128.295 34.5377 128.261C34.5294 128.257 34.5241 128.254 34.5208 128.252C34.5204 128.244 34.5208 128.229 34.5273 128.202C34.5541 128.092 34.6534 127.91 34.8659 127.643C35.1788 127.25 35.88 126.776 36.7836 126.343C37.6771 125.916 38.732 125.545 39.7174 125.34L39.6665 125.095L39.7174 125.34C41.3519 124.999 42.7455 124.939 44.3096 125.227C45.8803 125.515 47.634 126.157 49.9867 127.239C51.6487 128.003 53.7692 128.773 54.7064 128.944C58.9944 129.729 63.1084 127.97 65.0131 124.489L64.7938 124.369L65.0132 124.489C65.2784 124.004 65.4414 123.585 65.535 122.986C65.6267 122.399 65.6513 121.641 65.6511 120.482C65.6508 119.318 65.6256 118.556 65.5305 117.953C65.4338 117.339 65.2657 116.893 64.9922 116.359ZM44.2997 134.673L44.439 134.465L44.2998 134.673C46.5315 136.17 48.4 137.068 50.8815 137.837C52.305 138.278 54.4702 138.509 56.6729 138.534C58.8778 138.558 61.1511 138.375 62.795 137.972C64.8758 137.46 68.418 135.938 70.4741 134.674L71.3763 134.12L73.3719 134.981C74.5236 135.478 76.2654 136.398 77.234 137.021C78.1922 137.638 79.5032 138.707 80.5773 139.692C81.1137 140.184 81.586 140.651 81.9223 141.025C82.091 141.212 82.2213 141.372 82.3079 141.497C82.3104 141.5 82.3129 141.504 82.3153 141.508C82.1202 141.532 81.8167 141.556 81.3845 141.577C80.5021 141.62 79.1079 141.654 77.0653 141.68C72.9813 141.731 66.3176 141.75 56 141.75C47.0125 141.75 40.3484 141.727 35.9315 141.68C33.7228 141.656 32.0776 141.627 30.9853 141.591C30.4386 141.574 30.0335 141.554 29.7666 141.534C29.7413 141.532 29.7175 141.53 29.6951 141.528C29.7495 141.445 29.8219 141.346 29.9112 141.233C30.1391 140.946 30.4622 140.587 30.8365 140.205C31.5857 139.439 32.5222 138.593 33.2751 138.045C35.3027 136.567 36.9729 135.651 39.5882 134.585C40.2259 134.326 40.8614 134.089 41.3707 133.918C41.6256 133.832 41.8466 133.763 42.0193 133.716C42.2028 133.666 42.3044 133.648 42.3367 133.648C42.3367 133.648 42.3425 133.648 42.3555 133.65C42.3682 133.652 42.3849 133.655 42.4061 133.661C42.4488 133.672 42.5029 133.689 42.5683 133.714C42.6989 133.764 42.8624 133.838 43.0485 133.932C43.42 134.12 43.8678 134.383 44.2997 134.673Z" stroke="#085C8B" stroke-width="0.5"/>
</svg>
