<svg width="100" height="142" viewBox="0 0 100 142" fill="none" xmlns="http://www.w3.org/2000/svg">
<path d="M41.6847 9.79519V141.334H26.0557V0.440986L41.6847 9.79519ZM99.75 58.1119V141.334H64.7662V48.5944L99.75 58.1119ZM42.1847 141.334L42.1855 113.003L64.2661 122.442L64.2662 141.334L42.1847 141.334ZM3.1333 15.8569L2.97595 15.9197V16.0891V25.7426V26.1115L3.3186 25.9748L19.4476 19.5391L19.6049 19.4763V19.3069V9.65346V9.28454L19.2623 9.42126L3.1333 15.8569ZM19.6049 25.7426V25.3736L19.2623 25.5104L3.1333 31.946L2.97595 32.0088V32.1782V41.8317V42.2006L3.3186 42.0639L19.4476 35.6282L19.6049 35.5654V35.396V25.7426ZM3.1333 48.0351L2.97595 48.0979V48.2673V57.9208V58.2897L3.3186 58.153L19.4476 51.7173L19.6049 51.6546V51.4851V41.8317V41.4628L19.2623 41.5995L3.1333 48.0351ZM19.6049 57.9208V57.5519L19.2623 57.6886L3.1333 64.1242L2.97595 64.187V64.3564V74.0099V74.3788L3.3186 74.2421L19.4476 67.8064L19.6049 67.7437V67.5742V57.9208ZM71.0356 105.948L70.7171 105.857V106.188V115.842V116.03L70.8986 116.082L93.4792 122.518L93.7977 122.608V122.277V112.624V112.435L93.6162 112.383L71.0356 105.948ZM93.7977 96.5347V96.3459L93.6162 96.2942L71.0356 89.8586L70.7171 89.7678V90.099V99.7525V99.9412L70.8986 99.9929L93.4792 106.429L93.7977 106.519V106.188V96.5347ZM71.0356 73.7695L70.7171 73.6787V74.0099V83.6634V83.8521L70.8986 83.9038L93.4792 90.3394L93.7977 90.4302V90.099V80.4455V80.2568L93.6162 80.2051L71.0356 73.7695ZM93.7977 64.3564V64.1677L93.6162 64.116L71.0356 57.6804L70.7171 57.5896V57.9208V67.5742V67.7629L70.8986 67.8147L93.4792 74.2503L93.7977 74.3411V74.0099V64.3564ZM45.4114 109.237V58.0625L61.0404 48.7083V115.473L45.4114 109.237ZM0.25 9.81847L22.3306 0.378766V141.334H0.25V9.81847Z" stroke="#085C8B" stroke-width="0.5"/>
</svg>
