<svg width="185" height="142" viewBox="0 0 185 142" fill="none" xmlns="http://www.w3.org/2000/svg">
<mask id="path-1-inside-1" fill="white">
<path fill-rule="evenodd" clip-rule="evenodd" d="M52.265 0.618906C48.8433 1.5466 46.2416 3.36962 42.8814 7.19528C38.3243 12.3832 35.8444 15.9511 32.0755 22.7415C30.935 24.7959 29.8781 26.6889 29.7267 26.9479C29.3718 27.5551 27.4122 27.9848 26.8514 27.5786C26.5388 27.3525 26.5128 26.8204 26.7567 25.6577C27.1083 23.9803 26.9049 21.1568 26.361 20.1716C25.8425 19.2322 20.3568 19.1521 17.8154 20.047C14.2724 21.2947 10.9992 25.5177 11.9648 27.5952C13.189 30.2298 15.3141 31.2607 20.0562 31.5196C25.9932 31.8436 26.068 31.6757 15.3806 42.0317C10.5034 46.7579 6.02375 51.3159 5.42608 52.161C3.75807 54.5189 1.8429 59.3871 1.27269 62.718C0.712953 65.987 -0.0021632 81.4495 4.91814e-06 90.2401C0.00289574 103.994 1.88229 116.518 4.68566 121.465L5.78273 123.401V131.296C5.78273 139.483 6.04001 141.137 7.40484 141.723C8.13369 142.036 43.7584 142.099 44.4811 141.788C45.8379 141.205 46.2542 139.408 46.2542 134.133V129.037H92.5074H138.76V134.29C138.76 139.454 138.777 139.564 139.754 140.767L140.748 141.991L158.847 142C168.801 142.005 177.222 141.89 177.56 141.745C178.978 141.135 179.232 139.55 179.232 131.296V123.401L180.329 121.465C183.197 116.405 185.033 103.729 185 89.2287C184.976 79.1612 184.068 63.1966 183.374 60.6636C182.631 57.9477 181.319 54.9821 179.817 52.6218C178.919 51.2115 169.325 41.5207 161.996 34.6223C161.171 33.8451 160.8 33.1771 160.874 32.5994C160.976 31.7959 161.257 31.7198 164.959 31.4929C167.145 31.359 169.259 31.1017 169.656 30.9212C171.036 30.2953 172.38 29.0367 172.922 27.863C173.42 26.784 173.407 26.5538 172.768 25.1641C171.146 21.6419 168.392 19.8642 164.009 19.5106C160.128 19.1974 158.706 19.5563 158.384 20.9318C158.04 22.4 158.031 25.0148 158.365 26.3483C158.583 27.2194 158.5 27.4819 157.944 27.6793C156.316 28.2579 155.48 27.5034 153.379 23.5628C148.643 14.6759 141.002 4.83823 137.012 2.48764C132.603 -0.108519 134.092 -0.0263911 92.3036 0.0108299C60.8623 0.0387456 54.0226 0.142721 52.265 0.618906ZM20.5704 59.4337C22.7103 60.6563 23.5974 62.1795 24.3501 65.9231C24.5156 66.746 25.0537 67.1433 27.238 68.0552C33.8179 70.8018 41.084 78.5151 40.3165 81.939C39.8886 83.8466 39.3195 83.9267 26.1992 83.9267H13.9132L11.9091 82.8744C9.13247 81.4163 7.46121 79.6491 6.50544 77.1614C5.812 75.3566 5.71877 74.5616 5.87704 71.7975C6.29188 64.5552 9.46058 59.042 13.6599 58.2568C15.5306 57.9068 18.9024 58.4813 20.5704 59.4337ZM173.954 59.4232C176.64 61.2818 178.75 66.197 179.126 71.4698C179.518 76.9696 177.716 80.5072 173.381 82.7482L171.102 83.9267H158.816C145.695 83.9267 145.126 83.8466 144.698 81.939C143.871 78.2489 152.248 69.752 158.914 67.5203C160.105 67.1214 160.505 66.7638 160.663 65.9575C161.648 60.931 163.534 58.9522 167.955 58.3057C170.526 57.9295 172.263 58.2531 173.954 59.4232ZM135.05 74.7226C136.693 75.1462 137.508 75.7377 138.07 76.9146C138.413 77.6315 136.917 77.6558 92.6743 77.6558C50.4195 77.6558 46.9329 77.6048 47.0409 76.9906C47.2577 75.7555 48.9001 74.8403 51.4938 74.5094C55.1677 74.0405 133.178 74.2395 135.05 74.7226ZM138.309 80.8244C138.783 80.8956 138.914 82.3998 138.541 83.4889C138.343 84.0679 133.951 84.129 92.5074 84.129C51.0638 84.129 46.6719 84.0679 46.4736 83.4889C46.2112 82.7235 46.1838 81.106 46.4288 80.8317C46.5827 80.6597 137.163 80.6525 138.309 80.8244ZM137.676 87.4315C137.676 87.6322 137.441 88.4276 137.153 89.1991L136.629 90.6022H92.5074H48.3855L47.8619 89.1991C47.5739 88.4276 47.3383 87.6354 47.3383 87.4396C47.3383 87.2353 66.6804 87.0791 92.5074 87.0747C119.086 87.0702 137.676 87.2171 137.676 87.4315ZM134.94 94.0411C134.926 94.2636 134.221 94.9918 133.373 95.6594L131.833 96.8731L93.47 96.99C72.3706 97.0539 54.5982 97.0042 53.9756 96.8792C52.682 96.6194 49.746 94.387 50.0275 93.8772C50.3043 93.3755 134.972 93.539 134.94 94.0411ZM34.5435 105.131C36.9169 106.279 39.1562 108.913 41.6249 113.461C43.8249 117.514 46.2542 122.406 46.2542 122.784C46.2542 122.919 41.2538 122.959 35.1426 122.872C25.7623 122.738 23.7271 122.601 22.0812 121.998C16.5351 119.965 12.7789 116.682 11.9911 113.179C11.4245 110.659 11.4397 105.512 12.0164 104.629C12.7966 103.435 14.1874 103.334 23.5692 103.793C31.6451 104.189 32.9167 104.344 34.5435 105.131ZM172.768 104.403C173.464 105.182 173.518 105.602 173.379 109.157C173.144 115.175 171.624 117.628 166.412 120.399C162.188 122.645 160.062 122.953 148.749 122.961C139.713 122.967 138.706 122.903 138.903 122.327C139.024 121.975 140.081 119.823 141.253 117.544C145.871 108.57 147.125 106.864 150.3 105.237C152.436 104.142 156.494 103.748 167.036 103.613C171.652 103.553 172.059 103.609 172.768 104.403ZM133.919 110.926C133.586 112.791 130.966 117.556 129.166 119.572C128.015 120.861 127.02 121.504 125.207 122.131C122.84 122.949 122.103 122.968 92.726 122.968C60.1042 122.968 60.0489 122.965 57.0323 120.74C54.8786 119.152 50.984 112.474 50.9598 110.329C50.9522 109.663 53.2482 109.624 92.5518 109.624H134.152L133.919 110.926Z"/>
</mask>
<path fill-rule="evenodd" clip-rule="evenodd" d="M52.265 0.618906C48.8433 1.5466 46.2416 3.36962 42.8814 7.19528C38.3243 12.3832 35.8444 15.9511 32.0755 22.7415C30.935 24.7959 29.8781 26.6889 29.7267 26.9479C29.3718 27.5551 27.4122 27.9848 26.8514 27.5786C26.5388 27.3525 26.5128 26.8204 26.7567 25.6577C27.1083 23.9803 26.9049 21.1568 26.361 20.1716C25.8425 19.2322 20.3568 19.1521 17.8154 20.047C14.2724 21.2947 10.9992 25.5177 11.9648 27.5952C13.189 30.2298 15.3141 31.2607 20.0562 31.5196C25.9932 31.8436 26.068 31.6757 15.3806 42.0317C10.5034 46.7579 6.02375 51.3159 5.42608 52.161C3.75807 54.5189 1.8429 59.3871 1.27269 62.718C0.712953 65.987 -0.0021632 81.4495 4.91814e-06 90.2401C0.00289574 103.994 1.88229 116.518 4.68566 121.465L5.78273 123.401V131.296C5.78273 139.483 6.04001 141.137 7.40484 141.723C8.13369 142.036 43.7584 142.099 44.4811 141.788C45.8379 141.205 46.2542 139.408 46.2542 134.133V129.037H92.5074H138.76V134.29C138.76 139.454 138.777 139.564 139.754 140.767L140.748 141.991L158.847 142C168.801 142.005 177.222 141.89 177.56 141.745C178.978 141.135 179.232 139.55 179.232 131.296V123.401L180.329 121.465C183.197 116.405 185.033 103.729 185 89.2287C184.976 79.1612 184.068 63.1966 183.374 60.6636C182.631 57.9477 181.319 54.9821 179.817 52.6218C178.919 51.2115 169.325 41.5207 161.996 34.6223C161.171 33.8451 160.8 33.1771 160.874 32.5994C160.976 31.7959 161.257 31.7198 164.959 31.4929C167.145 31.359 169.259 31.1017 169.656 30.9212C171.036 30.2953 172.38 29.0367 172.922 27.863C173.42 26.784 173.407 26.5538 172.768 25.1641C171.146 21.6419 168.392 19.8642 164.009 19.5106C160.128 19.1974 158.706 19.5563 158.384 20.9318C158.04 22.4 158.031 25.0148 158.365 26.3483C158.583 27.2194 158.5 27.4819 157.944 27.6793C156.316 28.2579 155.48 27.5034 153.379 23.5628C148.643 14.6759 141.002 4.83823 137.012 2.48764C132.603 -0.108519 134.092 -0.0263911 92.3036 0.0108299C60.8623 0.0387456 54.0226 0.142721 52.265 0.618906ZM20.5704 59.4337C22.7103 60.6563 23.5974 62.1795 24.3501 65.9231C24.5156 66.746 25.0537 67.1433 27.238 68.0552C33.8179 70.8018 41.084 78.5151 40.3165 81.939C39.8886 83.8466 39.3195 83.9267 26.1992 83.9267H13.9132L11.9091 82.8744C9.13247 81.4163 7.46121 79.6491 6.50544 77.1614C5.812 75.3566 5.71877 74.5616 5.87704 71.7975C6.29188 64.5552 9.46058 59.042 13.6599 58.2568C15.5306 57.9068 18.9024 58.4813 20.5704 59.4337ZM173.954 59.4232C176.64 61.2818 178.75 66.197 179.126 71.4698C179.518 76.9696 177.716 80.5072 173.381 82.7482L171.102 83.9267H158.816C145.695 83.9267 145.126 83.8466 144.698 81.939C143.871 78.2489 152.248 69.752 158.914 67.5203C160.105 67.1214 160.505 66.7638 160.663 65.9575C161.648 60.931 163.534 58.9522 167.955 58.3057C170.526 57.9295 172.263 58.2531 173.954 59.4232ZM135.05 74.7226C136.693 75.1462 137.508 75.7377 138.07 76.9146C138.413 77.6315 136.917 77.6558 92.6743 77.6558C50.4195 77.6558 46.9329 77.6048 47.0409 76.9906C47.2577 75.7555 48.9001 74.8403 51.4938 74.5094C55.1677 74.0405 133.178 74.2395 135.05 74.7226ZM138.309 80.8244C138.783 80.8956 138.914 82.3998 138.541 83.4889C138.343 84.0679 133.951 84.129 92.5074 84.129C51.0638 84.129 46.6719 84.0679 46.4736 83.4889C46.2112 82.7235 46.1838 81.106 46.4288 80.8317C46.5827 80.6597 137.163 80.6525 138.309 80.8244ZM137.676 87.4315C137.676 87.6322 137.441 88.4276 137.153 89.1991L136.629 90.6022H92.5074H48.3855L47.8619 89.1991C47.5739 88.4276 47.3383 87.6354 47.3383 87.4396C47.3383 87.2353 66.6804 87.0791 92.5074 87.0747C119.086 87.0702 137.676 87.2171 137.676 87.4315ZM134.94 94.0411C134.926 94.2636 134.221 94.9918 133.373 95.6594L131.833 96.8731L93.47 96.99C72.3706 97.0539 54.5982 97.0042 53.9756 96.8792C52.682 96.6194 49.746 94.387 50.0275 93.8772C50.3043 93.3755 134.972 93.539 134.94 94.0411ZM34.5435 105.131C36.9169 106.279 39.1562 108.913 41.6249 113.461C43.8249 117.514 46.2542 122.406 46.2542 122.784C46.2542 122.919 41.2538 122.959 35.1426 122.872C25.7623 122.738 23.7271 122.601 22.0812 121.998C16.5351 119.965 12.7789 116.682 11.9911 113.179C11.4245 110.659 11.4397 105.512 12.0164 104.629C12.7966 103.435 14.1874 103.334 23.5692 103.793C31.6451 104.189 32.9167 104.344 34.5435 105.131ZM172.768 104.403C173.464 105.182 173.518 105.602 173.379 109.157C173.144 115.175 171.624 117.628 166.412 120.399C162.188 122.645 160.062 122.953 148.749 122.961C139.713 122.967 138.706 122.903 138.903 122.327C139.024 121.975 140.081 119.823 141.253 117.544C145.871 108.57 147.125 106.864 150.3 105.237C152.436 104.142 156.494 103.748 167.036 103.613C171.652 103.553 172.059 103.609 172.768 104.403ZM133.919 110.926C133.586 112.791 130.966 117.556 129.166 119.572C128.015 120.861 127.02 121.504 125.207 122.131C122.84 122.949 122.103 122.968 92.726 122.968C60.1042 122.968 60.0489 122.965 57.0323 120.74C54.8786 119.152 50.984 112.474 50.9598 110.329C50.9522 109.663 53.2482 109.624 92.5518 109.624H134.152L133.919 110.926Z" stroke="#085C8B" mask="url(#path-1-inside-1)"/>
</svg>
