<svg width="52" height="52" viewBox="0 0 52 52" fill="none" xmlns="http://www.w3.org/2000/svg">
<g clip-path="url(#clip0)">
<path fill-rule="evenodd" clip-rule="evenodd" d="M38.2673 21.0727C37.9545 19.6424 36.0455 19.6424 35.7327 21.0727C34.9317 24.7349 30.9947 26.4743 28.0006 24.489C26.8313 23.7136 25.4815 25.1533 26.2084 26.4007C28.0697 29.5944 26.439 33.7938 23.0057 34.6482C21.6648 34.9819 21.6648 37.0181 23.0057 37.3518C26.439 38.2062 28.0697 42.4056 26.2084 45.5993C25.4815 46.8467 26.8313 48.2864 28.0006 47.5111C30.9947 45.5257 34.9317 47.2651 35.7327 50.9273C36.0455 52.3576 37.9545 52.3576 38.2673 50.9273C39.0683 47.2651 43.0053 45.5257 45.9994 47.5111C47.1687 48.2864 48.5185 46.8467 47.7916 45.5993C45.9303 42.4056 47.561 38.2062 50.9943 37.3518C52.3352 37.0181 52.3352 34.9819 50.9943 34.6482C47.561 33.7938 45.9303 29.5944 47.7916 26.4007C48.5185 25.1533 47.1687 23.7136 45.9994 24.489C43.0053 26.4743 39.0683 24.7349 38.2673 21.0727Z" stroke="#085C8B" stroke-linecap="round" stroke-linejoin="round"/>
<path d="M37 33C35.3431 33 34 34.3431 34 36C34 37.6569 35.3431 39 37 39C38.6569 39 40 37.6569 40 36C40 34.3431 38.6569 33 37 33Z" stroke="#085C8B" stroke-linecap="round" stroke-linejoin="round"/>
<path fill-rule="evenodd" clip-rule="evenodd" d="M18.9785 1.27383C18.6135 -0.42461 16.3865 -0.424612 16.0215 1.27383C15.087 5.62268 10.4939 7.68827 7.00072 5.33063C5.63648 4.40985 4.0617 6.1196 4.90979 7.60078C7.0813 11.3933 5.17878 16.3801 1.17327 17.3948C-0.39109 17.791 -0.391088 20.209 1.17327 20.6052C5.17878 21.6199 7.0813 26.6067 4.90979 30.3992C4.0617 31.8804 5.63648 33.5901 7.00072 32.6694C10.4939 30.3117 15.087 32.3773 16.0215 36.7262C16.3865 38.4246 18.6135 38.4246 18.9785 36.7262C19.913 32.3773 24.5061 30.3117 27.9993 32.6694C29.3635 33.5902 30.9383 31.8804 30.0902 30.3992C27.9187 26.6067 29.8212 21.6199 33.8267 20.6052C35.3911 20.209 35.3911 17.791 33.8267 17.3948C29.8212 16.3801 27.9187 11.3933 30.0902 7.60078C30.9383 6.1196 29.3635 4.40985 27.9993 5.33063C24.5061 7.68827 19.913 5.62268 18.9785 1.27383Z" stroke="#22304B" stroke-linecap="round" stroke-linejoin="round"/>
<path fill-rule="evenodd" clip-rule="evenodd" d="M17.5 15C15.567 15 14 16.567 14 18.5C14 20.433 15.567 22 17.5 22C19.433 22 21 20.433 21 18.5C21 16.567 19.433 15 17.5 15Z" stroke="#22304B" stroke-linecap="round" stroke-linejoin="round"/>
</g>
<defs>
<clipPath id="clip0">
<rect width="52" height="52" fill="white"/>
</clipPath>
</defs>
</svg>
