<svg width="52" height="52" viewBox="0 0 52 52" fill="none" xmlns="http://www.w3.org/2000/svg">
<circle r="4.47555" transform="matrix(0.865289 -0.501274 0.498727 0.866759 31.6645 21.7908)" stroke="#085C8B"/>
<rect x="0.682008" y="0.182742" width="34.8239" height="16.912" transform="matrix(0.865289 -0.501274 0.498727 0.866759 11.942 23.3239)" stroke="#085C8B"/>
<rect x="12.4413" y="29.4283" width="34.8239" height="16.912" fill="white" stroke="#22304B"/>
<path d="M34.3279 37.8843C34.3279 40.3561 32.3242 42.3598 29.8524 42.3598C27.3806 42.3598 25.3768 40.3561 25.3768 37.8843C25.3768 35.4125 27.3806 33.4088 29.8524 33.4088C32.3242 33.4088 34.3279 35.4125 34.3279 37.8843Z" fill="white" stroke="#22304B"/>
<circle cx="16.4193" cy="24.4502" r="15.9193" fill="white" stroke="#22304B"/>
<line x1="0.5" y1="-0.5" x2="15.4217" y2="-0.5" transform="matrix(0.60841 0.793623 -0.791622 0.611012 6.96582 13.0065)" stroke="#22304B" stroke-linecap="round"/>
<path d="M26.8679 17.9821L17.4347 25.3039" stroke="#22304B" stroke-linecap="round"/>
<circle cx="16.9169" cy="24.9478" r="0.995109" fill="#22304B"/>
</svg>
