<svg width="125" height="134" viewBox="0 0 125 134" fill="none" xmlns="http://www.w3.org/2000/svg">
<path d="M17.4789 58.4586H3.32435L0.670166 66.0264L11.4709 77.9319H26.0329L31.9392 72.3407L17.4789 65.3997V58.4586Z" stroke="#085C8B" stroke-width="0.5"/>
<path d="M6.27754 1.10001V54.892H14.3223L19.2611 19.3679L11.4709 11.9932V1.10001H6.27754Z" stroke="#085C8B" stroke-width="0.5"/>
<path d="M50.7783 37.8287L14.9333 9.67952V1.10001H21.9597L67.4788 35.2259V42.1668H56.6846L50.7783 52.0961V37.8287Z" stroke="#085C8B" stroke-width="0.5"/>
<path d="M103.005 103.105H32.9792V86.7277L58.6831 45.5498H78.7847V79.7089H95.9867C99.863 79.7089 103.005 82.8513 103.005 86.7277V103.105Z" stroke="#085C8B" stroke-width="0.5"/>
<path d="M41.8359 96.1406V81.6953L58.7204 54.8563H67.4785V82.892H54.8379V96.1406H41.8359Z" stroke="#085C8B" stroke-width="0.5"/>
<rect x="20.072" y="105.277" width="103.971" height="27.5719" rx="12.75" stroke="#085C8B" stroke-width="0.5"/>
<rect x="30.1768" y="112.956" width="83.762" height="12.2131" rx="6.10656" stroke="#085C8B" stroke-width="0.5"/>
<line x1="73.8684" y1="85.4806" x2="103.004" y2="85.4806" stroke="#085C8B" stroke-width="0.5"/>
<line x1="68.9485" y1="91.583" x2="103.005" y2="91.583" stroke="#085C8B" stroke-width="0.5"/>
<line x1="62.7375" y1="97.0172" x2="103.005" y2="97.0172" stroke="#085C8B" stroke-width="0.5"/>
<rect x="16.6689" y="3.83743" width="4.98019" height="3.72374" stroke="#085C8B" stroke-width="0.5"/>
</svg>
