<svg width="110" height="110" viewBox="0 0 110 110" fill="none" xmlns="http://www.w3.org/2000/svg">
<path d="M54.1951 0.00185806H0.00976562L11.4099 11.3571H54.1951C65.7809 11.3571 76.8919 15.9542 85.0843 24.1371C93.2766 32.32 97.8794 43.4184 97.8794 54.9906C97.8794 66.563 93.2766 77.6615 85.0843 85.8442C76.8919 94.0268 65.7809 98.6244 54.1951 98.6244H27.4863L37.9167 88.2208H54.2026C63.0235 88.2208 71.4832 84.721 77.7203 78.4907C83.9581 72.2605 87.4624 63.8106 87.4624 54.9999C87.4624 46.1892 83.9581 37.7394 77.7203 31.5093C71.4832 25.2791 63.0235 21.7791 54.2026 21.7791H21.8207L33.4674 33.4048L47.8325 47.7421H54.1951C56.1188 47.7421 57.9637 48.5054 59.324 49.864C60.6842 51.2227 61.4484 53.0655 61.4484 54.9869C61.4484 56.9084 60.6842 58.7511 59.324 60.1098C57.9637 61.4684 56.1188 62.2318 54.1951 62.2318H47.852L36.2053 73.8696H54.1951C56.676 73.8696 59.1326 73.3815 61.4246 72.4333C63.7167 71.4849 65.7993 70.095 67.5535 68.3428C69.3077 66.5906 70.6993 64.5104 71.6487 62.2211C72.5981 59.9317 73.0867 57.4779 73.0867 54.9999C73.0867 52.5219 72.5981 50.0682 71.6487 47.7788C70.6993 45.4895 69.3077 43.4093 67.5535 41.6571C65.7993 39.9049 63.7167 38.5149 61.4246 37.5667C59.1326 36.6183 56.676 36.1303 54.1951 36.1303H52.2846L49.5588 33.403H49.6295L54.1951 33.3909C59.9325 33.3909 65.4349 35.6675 69.4918 39.7197C73.5487 43.7719 75.8278 49.2679 75.8278 54.9986C75.8278 60.7293 73.5487 66.2252 69.4918 70.2774C65.4349 74.3297 59.9325 76.6064 54.1951 76.6064H33.4516L11.4136 98.6221L0.0218642 110H54.1951C68.799 110 82.805 104.205 93.1315 93.8906C103.458 83.5761 109.259 69.5868 109.259 54.9999C109.259 40.413 103.458 26.4236 93.1315 16.1091C82.805 5.79462 68.799 0 54.1951 0V0.00185806Z" fill="#0B889A"/>
<path d="M39.5311 54.9943L0.00854492 15.5186V94.478L11.4077 83.0912L39.5311 54.9943Z" fill="#085C8B"/>
</svg>
