<svg width="111" height="110" viewBox="0 0 111 110" fill="none" xmlns="http://www.w3.org/2000/svg">
<path d="M100.478 22.6544C98.8958 20.4828 97.1582 18.4291 95.2783 16.5094C95.1446 16.3749 95.0179 16.2413 94.8842 16.1067C88.9424 10.159 81.7171 5.6519 73.7624 2.93164V75.0814C73.7625 77.4999 73.2862 79.8948 72.3607 82.1292C71.4352 84.3637 70.0787 86.3939 68.3686 88.1038C66.6584 89.8145 64.6282 91.1711 62.3937 92.0963C60.1592 93.0215 57.7644 93.498 55.3459 93.498H44.3675V108.773C48.1888 109.588 52.0852 110 55.9925 110C66.1384 110.001 76.087 107.196 84.7378 101.894C93.3888 96.593 100.404 89.0013 105.009 79.9606C109.613 70.9196 111.626 60.7811 110.827 50.6667C110.028 40.5523 106.446 30.8562 100.478 22.6509V22.6544Z" fill="#085C8B"/>
<path d="M55.9925 9.12527e-09C45.8469 0.00096614 35.8992 2.80787 27.2494 8.11031C18.5998 13.4127 11.585 21.0041 6.98102 30.045C2.37703 39.0858 0.363127 49.2239 1.16204 59.338C1.96094 69.4521 5.54155 79.1482 11.5079 87.3541C13.0936 89.5248 14.834 91.5783 16.7154 93.4981C16.8447 93.6283 16.9715 93.7585 17.1008 93.8974C23.0415 99.8444 30.2645 104.352 38.2165 107.076V34.9192C38.2186 30.0351 40.1603 25.3517 43.6146 21.8988C47.069 18.4459 51.7532 16.5062 56.6374 16.5062H67.6158V1.23072C63.7955 0.412455 59.8995 -7.08434e-05 55.9925 9.12527e-09Z" fill="#22304B"/>
</svg>
