<svg width="93" height="110" viewBox="0 0 93 110" fill="none" xmlns="http://www.w3.org/2000/svg">
<path d="M78.798 96.6558C70.2528 105.2 58.6635 110 46.5794 110C34.4954 110 22.9061 105.2 14.3608 96.6558C13.9188 96.2138 13.496 95.7718 13.0717 95.3166C10.8146 92.8667 8.82973 90.1794 7.15186 87.3017C7.81632 87.5183 8.47784 87.726 9.14673 87.9176C9.16279 87.9248 9.17959 87.9302 9.19683 87.9338H9.21451C9.92023 88.1415 10.6186 88.3404 11.3169 88.5231C11.4923 88.5658 11.6587 88.6159 11.8252 88.6704C12.4897 88.8369 13.1512 89.0034 13.829 89.1448C14.0143 89.2001 14.2027 89.2443 14.3932 89.2774C14.9015 89.4027 15.4246 89.5102 15.9402 89.6104C16.2983 89.6855 16.6769 89.7577 17.0217 89.827C17.5535 89.9257 18.0766 90.0185 18.6084 90.101C18.9591 90.1673 19.2906 90.2174 19.6486 90.2587C20.098 90.3426 20.5547 90.406 21.0129 90.459C21.4107 90.5253 21.8099 90.5754 22.2181 90.6167C22.775 90.6918 23.3319 90.7493 23.905 90.7905C24.1378 90.8244 24.3794 90.8495 24.6284 90.8657C25.2354 90.9246 25.8424 90.9659 26.4583 90.9983C26.7824 91.0233 27.1065 91.0484 27.4469 91.0572C27.7872 91.066 28.1541 91.0985 28.5121 91.1073C29.1766 91.1397 29.8499 91.1486 30.5247 91.1574C30.6075 91.1648 30.6908 91.1648 30.7736 91.1574C31.4219 91.1736 32.079 91.1574 32.7273 91.1486C33.1693 91.1574 33.6009 91.1397 34.0238 91.1147C34.507 91.1147 34.98 91.0911 35.4544 91.066C35.7284 91.0572 35.9951 91.041 36.2529 91.016C36.885 90.9821 37.517 90.932 38.1476 90.8834C38.4718 90.8583 38.8047 90.8244 39.1289 90.7832C39.5944 90.7493 40.0526 90.708 40.502 90.6358C40.944 90.5946 41.386 90.5357 41.8147 90.4694C42.2051 90.4281 42.597 90.3692 42.9713 90.3117C43.4693 90.2454 43.9599 90.1644 44.4446 90.0789C44.9293 89.9935 45.442 89.9124 45.9415 89.8123C46.1712 89.7809 46.399 89.7365 46.6236 89.6797C47.322 89.5456 48.0203 89.3968 48.7099 89.2377C49.5751 89.055 50.4317 88.8472 51.2793 88.6144C51.6536 88.5216 52.016 88.4229 52.3843 88.3198C55.3646 87.4962 58.2916 86.4909 61.1491 85.3098C61.5558 85.1521 61.955 84.9856 62.3543 84.803C62.7963 84.6276 63.2265 84.4287 63.6597 84.2284C64.0177 84.0707 64.3831 83.9042 64.7411 83.7304C65.1389 83.5477 65.5382 83.3473 65.9301 83.1573C67.3592 82.4574 68.7647 81.7178 70.1452 80.9193C70.4944 80.7204 70.8347 80.5288 71.1766 80.3211C71.402 80.1959 71.6097 80.0721 71.8263 79.938L72.8738 79.2898C74.2956 78.4058 75.6834 77.4614 77.0551 76.4713L77.9789 75.798L78.3944 75.4827C78.7597 75.2165 79.1173 74.942 79.4669 74.6591C79.9988 74.2437 80.5307 73.8282 81.0463 73.395C81.1937 73.2875 81.3204 73.1711 81.4544 73.0547C81.811 72.76 82.169 72.4565 82.5182 72.156C82.8674 71.8554 83.2254 71.5327 83.5746 71.2175C83.8235 71.0009 84.0652 70.7755 84.3112 70.5441C85.1098 69.8123 85.8911 69.0639 86.6553 68.2988C87.0472 67.9069 87.4288 67.5253 87.7956 67.1201C87.9945 66.9212 88.1861 66.7297 88.3776 66.522C89.0421 65.8059 89.6903 65.0914 90.3224 64.3606L90.3474 64.3356C90.5051 64.1602 90.6642 63.9864 90.813 63.8022C91.2373 63.3116 91.6439 62.821 92.0609 62.3289C92.0753 62.3149 92.0865 62.2978 92.0933 62.2788C92.1938 64.4194 92.1446 66.5644 91.946 68.6981V68.7482C91.946 68.7569 91.9429 68.7653 91.9371 68.7717C90.9441 79.3145 86.2964 89.1784 78.798 96.6558Z" fill="url(#paint0_linear)"/>
<path d="M86.6636 68.3031C76.7222 78.2517 64.2762 85.3278 50.6425 88.7824C37.009 92.2371 22.695 91.9418 9.21553 87.9277C9.19184 87.9292 9.16824 87.9236 9.14776 87.9115H9.13156C8.46709 87.7112 7.80556 87.5034 7.15288 87.2957C5.15469 83.8668 3.62221 80.1869 2.5959 76.3533C1.85128 73.5832 1.3674 70.7494 1.15057 67.8891C1.74874 67.8729 2.33954 67.8478 2.93771 67.814H2.95391C2.96735 67.8097 2.98175 67.8097 2.99517 67.814H3.00401C22.2134 66.8024 40.365 58.7023 53.947 45.0806C59.8077 39.2225 64.7042 32.4737 68.4548 25.0847V25.0758C68.471 25.0596 68.4799 25.0346 68.4961 25.0184L68.4799 25.0169C68.4889 24.9986 68.5002 24.9818 68.5137 24.9668C68.8541 24.2935 69.1871 23.6113 69.5038 22.9292L78.799 32.2259C86.831 40.2353 91.5761 50.9596 92.1016 62.2905C91.5359 62.9888 90.9539 63.671 90.3558 64.3531C89.183 65.6997 87.9528 67.0139 86.6636 68.3031Z" fill="url(#paint1_linear)"/>
<path d="M53.9465 45.0807C53.3896 45.6376 52.8239 46.1857 52.2581 46.719C51.8927 47.0682 51.5214 47.3997 51.1531 47.7415C49.6562 49.1039 48.1097 50.4009 46.5136 51.6326C46.1055 51.9567 45.6989 52.2646 45.2819 52.5637C44.7839 52.9468 44.2771 53.3004 43.7615 53.6702C43.2782 54.0194 42.7964 54.3509 42.2984 54.6838C42.1806 54.7663 42.0568 54.8415 41.9404 54.9254C41.5323 55.1995 41.108 55.4735 40.6925 55.7402C38.5301 57.1213 36.2991 58.392 34.0081 59.5473C33.5587 59.78 33.1108 59.9966 32.6688 60.2044C32.619 60.235 32.5661 60.2602 32.5112 60.2795C32.0544 60.5034 31.6139 60.7112 31.1557 60.9189C31.0231 60.9867 30.8743 61.053 30.724 61.1193C30.2334 61.3432 29.7428 61.551 29.2507 61.7602C28.6938 62.0003 28.128 62.2331 27.5623 62.4497C26.9965 62.6663 26.391 62.9064 25.7943 63.1319C25.2462 63.3307 24.6893 63.5223 24.1486 63.7212C23.5593 63.9201 22.992 64.1116 22.4189 64.2855C21.8458 64.4593 21.2623 64.6435 20.6804 64.81C20.0984 64.9764 19.5165 65.1429 18.9433 65.3006C18.3702 65.4582 17.7647 65.6085 17.1754 65.7426C16.586 65.8767 16.0041 66.0166 15.4073 66.1419C14.2287 66.3982 13.05 66.631 11.8713 66.8314C10.6927 67.0317 9.49341 67.1967 8.30444 67.3544C6.53645 67.5621 4.76846 67.7213 2.9828 67.82H2.97396C2.95775 67.82 2.95775 67.82 2.94891 67.82C2.94794 67.8211 2.94671 67.8222 2.9453 67.8229C2.9439 67.8235 2.94237 67.8239 2.94081 67.8239C2.93924 67.8239 2.9377 67.8235 2.9363 67.8229C2.9349 67.8222 2.93366 67.8211 2.9327 67.82C2.33453 67.8539 1.72752 67.8789 1.12935 67.8951C0.944216 65.4593 0.955054 63.0127 1.16177 60.5786C1.1696 60.5544 1.17261 60.5288 1.17061 60.5034C2.07877 49.8139 6.74482 39.7916 14.3406 32.2157L46.5799 0L69.5019 22.9219C69.1851 23.6041 68.861 24.2774 68.5118 24.9433V24.9596C68.4982 24.9746 68.4867 24.9915 68.4779 25.0096L68.4867 25.0185L68.4617 25.0421C68.4567 25.0462 68.4526 25.0513 68.4498 25.0572C68.447 25.063 68.4455 25.0695 68.4455 25.0759V25.0848C68.4216 25.1237 68.4023 25.1652 68.388 25.2085L68.1641 25.6329C67.5708 26.7938 66.9362 27.9441 66.2606 29.0834C65.8186 29.8569 65.3456 30.6304 64.8638 31.395C63.9916 32.7829 63.0634 34.1604 62.0793 35.5277C61.8376 35.8518 61.6137 36.176 61.3632 36.4912C60.7739 37.2809 60.1743 38.0633 59.551 38.8368C59.3271 39.1314 59.0855 39.4261 58.8439 39.6928C58.4122 40.2246 57.9599 40.7491 57.5061 41.2648C56.3687 42.5702 55.1821 43.8421 53.9465 45.0807Z" fill="url(#paint2_linear)"/>
<g style="mix-blend-mode:multiply" opacity="0.15">
<g style="mix-blend-mode:multiply" opacity="0.15">
<path d="M2.5959 76.3598C1.85128 73.5896 1.3674 70.7558 1.15057 67.8955C21.0193 67.3221 39.9133 59.1577 53.947 45.0811C60.38 38.6545 65.6439 31.1562 69.5023 22.9224C69.5023 22.9224 61.3799 60.0132 2.5959 76.3598Z" fill="#494D4E"/>
</g>
</g>
<g style="mix-blend-mode:multiply" opacity="0.15">
<g style="mix-blend-mode:multiply" opacity="0.15">
<path d="M13.073 95.3171C10.816 92.8672 8.83109 90.1799 7.1532 87.3022C20.8681 91.7925 35.5592 92.3934 49.5951 89.0384C63.631 85.6833 76.4622 78.5035 86.664 68.2964C88.5771 66.383 90.3923 64.3736 92.1021 62.2764C92.1021 62.2764 69.4276 102.234 13.073 95.3171Z" fill="#494D4E"/>
</g>
</g>
<g style="mix-blend-mode:multiply" opacity="0.25">
<g style="mix-blend-mode:multiply" opacity="0.25">
<path d="M83.0303 72.4691C82.2995 73.1016 81.5349 73.7665 80.7363 74.464C79.9289 75.1388 79.1319 75.9373 78.1992 76.5856C77.2858 77.2662 76.3296 77.9734 75.3557 78.6968C74.3996 79.4541 73.3108 80.0597 72.247 80.7595C71.1656 81.4923 70.0441 82.1642 68.8879 82.772C67.7092 83.3967 66.5305 84.0273 65.3209 84.6771C64.0819 85.2502 62.8163 85.7982 61.5301 86.3566C60.266 86.9548 58.9194 87.3703 57.5963 87.8609L55.6014 88.5755C54.9281 88.8009 54.2371 88.9747 53.5565 89.1751C52.1922 89.5243 50.8367 89.981 49.4488 90.2388C48.0683 90.5217 46.6878 90.8046 45.3162 91.0786C42.6231 91.5155 39.9089 91.8106 37.1849 91.9626C34.6406 92.1104 32.0905 92.13 29.5443 92.0216C28.3302 91.9214 27.1486 91.8212 26.0083 91.7269C25.4425 91.6768 24.8856 91.6193 24.3375 91.5693C23.7968 91.4941 23.2561 91.4028 22.7405 91.3203C21.6929 91.1538 20.7043 90.9947 19.7481 90.837C18.792 90.6794 17.9183 90.4215 17.0785 90.2477C15.4166 89.8307 13.9609 89.5243 12.7882 89.1162C10.6018 88.4267 9.30524 87.9773 9.14612 87.9198C9.1666 87.9318 9.1902 87.9375 9.21389 87.936C22.6942 91.9494 37.0088 92.2437 50.6428 88.7878C64.2766 85.3318 76.7227 78.2543 86.6635 68.304C87.9526 67.0149 89.1829 65.7007 90.3556 64.3467C90.1729 64.578 89.3243 65.627 87.9453 67.2727C87.5283 67.7383 87.1467 68.2539 86.5898 68.8108L84.9264 70.5243L83.0303 72.4691Z" fill="#494D4E"/>
</g>
</g>
<g style="mix-blend-mode:multiply" opacity="0.25">
<g style="mix-blend-mode:multiply" opacity="0.25">
<path d="M2.99474 67.8122H3.00358C2.97854 67.821 2.9697 67.8122 2.95349 67.8122C2.96691 67.8081 2.98131 67.8081 2.99474 67.8122Z" fill="#494D4E"/>
</g>
</g>
<g style="mix-blend-mode:multiply" opacity="0.25">
<g style="mix-blend-mode:multiply" opacity="0.25">
<path d="M68.4883 25.0169C68.475 25.038 68.4637 25.0603 68.4544 25.0832V25.0744C68.4544 25.0494 68.4795 25.0331 68.4868 25.0081C68.4957 24.99 68.5072 24.9732 68.5207 24.958C68.5207 24.958 68.5045 24.9845 68.4883 25.0169Z" fill="#494D4E"/>
</g>
</g>
<g style="mix-blend-mode:multiply" opacity="0.25">
<g style="mix-blend-mode:multiply" opacity="0.25">
<path d="M53.9293 46.5272C52.1698 48.3161 50.313 50.0066 48.3675 51.591C46.3666 53.2296 44.2824 54.7638 42.1236 56.1878C41.0259 56.9038 39.9283 57.6022 38.7983 58.2342L37.1187 59.1978C36.5441 59.4924 35.9783 59.7871 35.4052 60.0818C34.8321 60.3764 34.2663 60.6711 33.7006 60.9554C33.1274 61.2133 32.5455 61.4799 31.9797 61.7289C30.832 62.2608 29.6843 62.7102 28.5454 63.1507C27.4154 63.6163 26.2839 63.9993 25.17 64.3647C24.0562 64.7301 22.9497 65.0542 21.8772 65.346C20.8134 65.6612 19.7659 65.9273 18.7346 66.1445C17.7121 66.3684 16.722 66.5865 15.7658 66.75C14.8096 66.9136 13.8961 67.0918 13.0224 67.1994C12.1488 67.3069 11.3104 67.3998 10.5281 67.4823C8.95752 67.6399 7.58146 67.6988 6.46321 67.7902C4.4919 67.8314 3.26904 67.8226 3.00385 67.8226C22.2144 66.8087 40.3662 58.7052 53.947 45.0804C59.8075 39.2223 64.7041 32.4735 68.4548 25.0845C68.3973 25.2318 68.2897 25.4661 68.1395 25.8211C67.9067 26.3707 67.5501 27.1854 67.0507 28.1917C65.6747 30.9969 64.1079 33.7044 62.3611 36.295C61.1985 38.0359 59.9494 39.7177 58.6189 41.3337C57.1573 43.154 55.5915 44.8881 53.9293 46.5272Z" fill="#494D4E"/>
</g>
</g>
<g style="mix-blend-mode:screen" opacity="0.4">
<g style="mix-blend-mode:screen" opacity="0.4">
<path d="M86.6632 68.3035C76.7216 78.2521 64.2756 85.3282 50.6421 88.7828C37.0084 92.2375 22.6945 91.9422 9.21503 87.9282C9.53916 87.9856 10.8519 88.2361 12.9057 88.6648C14.0844 88.9595 15.5665 89.1304 17.2373 89.372C18.9095 89.6667 20.8219 89.7963 22.8831 89.979C23.4076 90.0203 23.9394 90.0704 24.4713 90.1264C25.012 90.1352 25.5601 90.1514 26.1185 90.1602C27.2397 90.2015 28.3962 90.2265 29.5852 90.2678C31.9543 90.1602 34.4575 90.1838 37.0343 89.8847C39.62 89.7374 42.2396 89.2365 44.9254 88.846C46.2553 88.5632 47.5882 88.2778 48.924 87.99C50.2706 87.7234 51.576 87.2666 52.902 86.9175C53.5679 86.7348 54.2413 86.5756 54.8895 86.3605L56.8358 85.6784C58.1235 85.2202 59.4377 84.8386 60.6767 84.264C61.9158 83.741 63.1549 83.2165 64.3851 82.7008C65.574 82.1115 66.7542 81.5221 67.9107 80.9549C69.0894 80.423 70.1546 79.7085 71.2449 79.1177C72.3248 78.4856 73.4151 77.939 74.3786 77.2466C76.3499 75.9206 78.2623 74.7272 79.8741 73.4307C80.7065 72.8163 81.5051 72.2166 82.2609 71.6435C82.9976 71.0277 83.6826 70.4369 84.3235 69.8888C84.9644 69.3407 85.5788 68.8162 86.1372 68.3418C86.6764 67.8998 87.1508 67.3783 87.6002 66.9628C89.1457 65.4659 90.127 64.5509 90.3435 64.3521C89.1826 65.7001 87.9523 67.0143 86.6632 68.3035Z" fill="white"/>
</g>
</g>
<g style="mix-blend-mode:screen" opacity="0.4">
<g style="mix-blend-mode:screen" opacity="0.4">
<path d="M53.9467 45.0801C40.3654 58.7039 22.2138 66.8063 3.00358 67.8194C2.97854 67.8282 2.9697 67.8194 2.95349 67.8194C2.96691 67.8153 2.98131 67.8153 2.99474 67.8194C3.26878 67.7781 4.48427 67.594 6.4379 67.3376C7.53552 67.1372 8.8733 66.9457 10.3952 66.6216C11.9172 66.2974 13.6365 65.9232 15.4753 65.4326C16.4064 65.216 17.3538 64.9346 18.335 64.6341C19.3162 64.3335 20.3387 64.0447 21.37 63.6779C22.4087 63.3375 23.4651 62.9795 24.5303 62.5478C25.5955 62.1162 26.6917 61.7331 27.7643 61.2425C28.8619 60.7769 29.9669 60.3025 31.0571 59.7456C32.1548 59.2299 33.2671 58.673 34.3485 58.0822C34.9069 57.7875 35.455 57.4929 36.0119 57.1982L37.6326 56.242C38.7214 55.6188 39.7777 54.9293 40.8253 54.2309C42.9377 52.8659 44.9799 51.3952 46.944 49.8242C48.8814 48.2684 50.7599 46.689 52.4822 45.0507C55.65 42.0888 58.5903 38.8925 61.2779 35.4888C63.1997 33.0783 64.9904 30.5661 66.6423 27.9631C67.6235 26.4338 68.2467 25.4113 68.4471 25.0783C68.4471 25.0533 68.4722 25.0371 68.4795 25.012C68.4884 24.9939 68.4999 24.9769 68.5134 24.9619C68.5134 24.9619 68.5046 24.987 68.4884 25.0208C68.4751 25.0419 68.4638 25.064 68.4545 25.0871C64.7035 32.4751 59.807 39.2229 53.9467 45.0801Z" fill="white"/>
</g>
</g>
<g style="mix-blend-mode:multiply" opacity="0.25">
<g style="mix-blend-mode:multiply" opacity="0.25">
<path d="M78.7988 96.6556C70.2536 105.2 58.6644 110 46.5802 110C34.4962 110 22.9071 105.2 14.3617 96.6556C14.3617 96.6556 14.6696 96.9134 15.2457 97.3923C15.8188 97.8991 16.7086 98.5562 17.8225 99.4048C18.9613 100.227 20.3757 101.173 22.0376 102.173C23.9176 103.247 25.8583 104.21 27.8499 105.058C30.2065 106.03 32.6363 106.814 35.1163 107.403C37.8713 108.036 40.6756 108.43 43.4981 108.582C46.5086 108.732 49.5266 108.593 52.5104 108.167C55.587 107.744 58.609 106.992 61.5241 105.921C64.4524 104.877 67.2639 103.531 69.9132 101.905C72.4801 100.328 74.89 98.5089 77.1104 96.4729C79.191 94.5535 81.0999 92.4557 82.8151 90.2039C84.3494 88.1724 85.7171 86.0201 86.9051 83.7684C87.9141 81.8491 88.7975 79.8664 89.5497 77.8324C90.1979 76.0026 90.6959 74.3731 91.0377 73.0176C91.3795 71.6622 91.6197 70.5734 91.7449 69.8338C91.8436 69.268 91.9099 68.9188 91.9438 68.7686C90.9501 79.3133 86.3 89.1783 78.7988 96.6556Z" fill="#494D4E"/>
</g>
</g>
<g style="mix-blend-mode:screen" opacity="0.4">
<g style="mix-blend-mode:screen" opacity="0.4">
<path d="M51.0527 5.91981L46.6209 1.70316L40.7011 7.82334C38.4646 10.1423 36.1692 12.4216 33.9003 14.7244C31.6314 17.0272 29.3521 19.3049 27.0567 21.5665C24.7613 23.828 22.4894 26.1235 20.1557 28.3688L16.6727 31.7354L14.968 33.4076C14.4023 33.9969 13.8041 34.5538 13.2958 35.1284C12.2225 36.2711 11.2137 37.4728 10.274 38.7277C9.32669 39.9919 8.45301 41.3134 7.62206 42.6615C6.79807 44.0108 6.04851 45.4043 5.37672 46.8354C4.6872 48.2734 4.08756 49.7526 3.53948 51.2554C3.03266 52.7611 2.52436 54.2816 2.15014 55.8536C1.75971 57.3756 1.45178 58.9476 1.18658 60.5093C2.09475 49.8198 6.7608 39.7975 14.3566 32.2216L46.5797 0L67.3653 20.7856C63.6496 17.5679 60.04 14.2588 56.4318 10.9335L51.0527 5.91981Z" fill="white"/>
</g>
</g>
<defs>
<linearGradient id="paint0_linear" x1="-389.251" y1="-226.864" x2="-398.28" y2="-163.49" gradientUnits="userSpaceOnUse">
<stop stop-color="#3E6896"/>
<stop offset="0.247" stop-color="#355881"/>
<stop offset="0.75" stop-color="#1F324E"/>
<stop offset="1" stop-color="#131D32"/>
</linearGradient>
<linearGradient id="paint1_linear" x1="-426.593" y1="-247.86" x2="-426.593" y2="-170.405" gradientUnits="userSpaceOnUse">
<stop stop-color="#5F2C82"/>
<stop offset="0.04" stop-color="#5D3283"/>
<stop offset="0.35" stop-color="#54618E"/>
<stop offset="0.625" stop-color="#4E8396"/>
<stop offset="0.851" stop-color="#4A989B"/>
<stop offset="1" stop-color="#49A09D"/>
</linearGradient>
<linearGradient id="paint2_linear" x1="-454.483" y1="-252.909" x2="-454.483" y2="-169.398" gradientUnits="userSpaceOnUse">
<stop stop-color="#0098BA"/>
<stop offset="0.017" stop-color="#009BBC"/>
<stop offset="0.19" stop-color="#00BAD4"/>
<stop offset="0.371" stop-color="#00D3E7"/>
<stop offset="0.56" stop-color="#00E5F4"/>
<stop offset="0.762" stop-color="#00EFFC"/>
<stop offset="1" stop-color="#00F3FF"/>
</linearGradient>
</defs>
</svg>
